<svg width="168" height="30" viewBox="0 0 168 30" fill="none" xmlns="http://www.w3.org/2000/svg">
<path d="M15.6763 8.23011C15.6763 11.2478 15.1277 13.0506 12.6586 14.0695V14.1479C15.402 15.2061 15.9899 17.2048 15.9899 20.6536C15.9899 26.0228 14.5398 28.7661 8.93551 28.7661H1.95954V0.470326H9.24904C14.0695 0.470326 15.6763 3.09611 15.6763 8.23011ZM6.66244 4.38941V12.4235H8.50441C10.5423 12.4235 11.091 11.1694 11.091 8.34769C11.091 5.52594 10.5423 4.38941 8.50441 4.38941H6.66244ZM11.4045 20.5752C11.4045 17.7143 10.9734 16.1075 8.30846 16.1075H6.66244V24.847H8.30846C10.8951 24.847 11.4045 23.7105 11.4045 20.5752ZM16.1511 28.7661L21.0892 0.470326H26.6151L31.5531 28.7661H27.0462L26.2232 22.8875H21.4811L20.6581 28.7661H16.1511ZM23.8717 7.17196L22.1081 18.8508H25.5961L23.8717 7.17196ZM44.1064 4.66375H39.2075V28.7661H34.5438V4.66375H29.5666V0.470326H44.1064V4.66375ZM58.9807 4.66375H54.0819V28.7661H49.4182V4.66375H44.4409V0.470326H58.9807V4.66375ZM64.7812 0.470326V24.6119H71.8747V28.7661H60.1175V0.470326H64.7812ZM78.0864 4.58536V12.1492H83.5731V16.1075H78.0864V24.5727H85.8462V28.7661H73.4227V0.470326H85.5327V4.58536H78.0864Z" fill="#7594DC"/>
<path d="M98.8794 0.470326V28.7661H94.2157V0.470326H98.8794ZM114.561 4.66375H109.662V28.7661H104.998V4.66375H100.021V0.470326H114.561V4.66375ZM135.786 6.97601V22.2604C135.786 26.493 133.043 29.2364 128.692 29.2364C124.342 29.2364 121.599 26.493 121.599 22.2604V6.97601C121.599 2.7434 124.342 3.72267e-05 128.692 3.72267e-05C133.043 3.72267e-05 135.786 2.7434 135.786 6.97601ZM131.083 22.378V6.85843C131.083 5.36918 130.574 4.11508 128.692 4.11508C126.811 4.11508 126.302 5.36918 126.302 6.85843V22.378C126.302 23.8673 126.811 25.1214 128.692 25.1214C130.574 25.1214 131.083 23.8673 131.083 22.378ZM151.747 0.470326V22.2604C151.747 26.493 149.003 29.2364 144.653 29.2364C140.303 29.2364 137.559 26.493 137.559 22.2604V0.470326H142.262V22.378C142.262 23.8673 142.772 25.1214 144.653 25.1214C146.534 25.1214 147.044 23.8673 147.044 22.378V0.470326H151.747ZM167.399 4.66375H162.5V28.7661H157.836V4.66375H152.859V0.470326H167.399V4.66375Z" fill="#893264"/>
</svg>
