<svg width="21" height="18" viewBox="0 0 21 18" fill="none" xmlns="http://www.w3.org/2000/svg">
<path fill-rule="evenodd" clip-rule="evenodd" d="M10.4131 5C8.34202 5 6.66309 6.67893 6.66309 8.75C6.66309 10.8211 8.34202 12.5 10.4131 12.5C12.4842 12.5 14.1631 10.8211 14.1631 8.75C14.1631 6.67893 12.4842 5 10.4131 5ZM8.16309 8.75C8.16309 7.50736 9.17045 6.5 10.4131 6.5C11.6557 6.5 12.6631 7.50736 12.6631 8.75C12.6631 9.99264 11.6557 11 10.4131 11C9.17045 11 8.16309 9.99264 8.16309 8.75Z" fill="white"/>
<path fill-rule="evenodd" clip-rule="evenodd" d="M10.4131 0C8.27214 0 6.33634 1.05899 4.76482 2.34572C3.18472 3.63946 1.8927 5.22865 1.0245 6.43801L0.9529 6.53759C0.430238 7.26384 0 7.86166 0 8.75C0 9.63834 0.430237 10.2362 0.9529 10.9624L1.0245 11.062C1.89271 12.2714 3.18472 13.8605 4.76482 15.1543C6.33634 16.441 8.27214 17.5 10.4131 17.5C12.554 17.5 14.4898 16.441 16.0614 15.1543C17.6415 13.8605 18.9335 12.2714 19.8017 11.062L19.8733 10.9624C20.3959 10.2362 20.8262 9.63835 20.8262 8.75C20.8262 7.86166 20.3959 7.26384 19.8733 6.53759L19.8017 6.43801C18.9335 5.22865 17.6415 3.63946 16.0614 2.34572C14.4898 1.05899 12.554 0 10.4131 0ZM2.24302 7.31278C3.07228 6.15765 4.27657 4.68414 5.71509 3.50631C7.16219 2.32146 8.76732 1.5 10.4131 1.5C12.0589 1.5 13.664 2.32146 15.1111 3.50631C16.5496 4.68414 17.7539 6.15765 18.5832 7.31278C19.2071 8.18194 19.3262 8.39148 19.3262 8.75C19.3262 9.10852 19.2071 9.31806 18.5832 10.1872C17.7539 11.3423 16.5496 12.8159 15.1111 13.9937C13.664 15.1785 12.0589 16 10.4131 16C8.76732 16 7.16219 15.1785 5.71509 13.9937C4.27657 12.8159 3.07229 11.3423 2.24302 10.1872C1.61905 9.31806 1.5 9.10852 1.5 8.75C1.5 8.39148 1.61905 8.18194 2.24302 7.31278Z" fill="white"/>
</svg>
