<svg width="22" height="23" viewBox="0 0 22 23" fill="none" xmlns="http://www.w3.org/2000/svg">
<path d="M4.71852 1.33568C5.04197 1.07692 5.09441 0.604953 4.83565 0.281506C4.57689 -0.0419401 4.10493 -0.0943811 3.78148 0.164376L1.28148 2.16438C0.958032 2.42313 0.905591 2.8951 1.16435 3.21855C1.42311 3.542 1.89507 3.59444 2.21852 3.33568L4.71852 1.33568Z" fill="white"/>
<path d="M17.7185 0.164376C17.3951 -0.0943811 16.9231 -0.0419401 16.6643 0.281506C16.4056 0.604953 16.458 1.07692 16.7815 1.33568L19.2815 3.33568C19.6049 3.59444 20.0769 3.542 20.3357 3.21855C20.5944 2.8951 20.542 2.42313 20.2185 2.16438L17.7185 0.164376Z" fill="white"/>
<path d="M11.5 7.50003C11.5 7.08581 11.1642 6.75003 10.75 6.75003C10.3358 6.75003 10 7.08581 10 7.50003L10 10.6894L9.28033 9.9697C8.98744 9.6768 8.51256 9.6768 8.21967 9.9697C7.92678 10.2626 7.92678 10.7375 8.21967 11.0304L9.71967 12.5304C10.3767 13.1873 11.5 12.722 11.5 11.7929L11.5 7.50003Z" fill="white"/>
<path fill-rule="evenodd" clip-rule="evenodd" d="M10.75 0.750028C4.81294 0.750028 0 5.56297 0 11.5C0 17.4371 4.81294 22.25 10.75 22.25C16.6871 22.25 21.5 17.4371 21.5 11.5C21.5 5.56297 16.6871 0.750028 10.75 0.750028ZM1.5 11.5C1.5 6.39139 5.64137 2.25003 10.75 2.25003C15.8586 2.25003 20 6.39139 20 11.5C20 16.6087 15.8586 20.75 10.75 20.75C5.64137 20.75 1.5 16.6087 1.5 11.5Z" fill="white"/>
</svg>
