<svg width="24" height="22" viewBox="0 0 24 22" fill="none" xmlns="http://www.w3.org/2000/svg">
<path fill-rule="evenodd" clip-rule="evenodd" d="M13.3495 6.26236C12.8201 4.57926 10.4831 4.57926 9.95368 6.26236C9.90961 6.40249 9.79336 6.47477 9.68664 6.47477C7.91116 6.47477 7.28678 8.74755 8.62923 9.75507C8.73072 9.83124 8.78448 9.9795 8.73926 10.1233C8.48092 10.9446 8.81337 11.7161 9.37978 12.1412C9.94971 12.569 10.7926 12.6681 11.4946 12.1412C11.5899 12.0697 11.7133 12.0697 11.8086 12.1412C12.5106 12.6681 13.3535 12.569 13.9234 12.1412C14.4899 11.7161 14.8223 10.9446 14.564 10.1233C14.5187 9.9795 14.5725 9.83124 14.674 9.75507C16.0164 8.74755 15.3921 6.47477 13.6166 6.47477C13.5099 6.47477 13.3936 6.40249 13.3495 6.26236ZM11.3846 6.71244C11.4736 6.42923 11.8296 6.42923 11.9187 6.71244C12.1512 7.45168 12.8282 7.97477 13.6166 7.97477C13.6934 7.97477 13.7426 7.99757 13.7793 8.02688C13.8212 8.06031 13.8609 8.1149 13.8836 8.18717C13.9295 8.33313 13.89 8.46801 13.7736 8.55537C13.1509 9.02268 12.9017 9.83774 13.1331 10.5733C13.184 10.7352 13.1264 10.864 13.023 10.9415C12.9701 10.9812 12.915 10.9985 12.869 10.9999C12.8293 11.0012 12.7761 10.9919 12.709 10.9415C12.0802 10.4696 11.223 10.4696 10.5942 10.9415C10.5271 10.9919 10.4739 11.0012 10.4343 10.9999C10.3883 10.9985 10.3331 10.9812 10.2802 10.9415C10.1768 10.864 10.1192 10.7352 10.1701 10.5733C10.4015 9.83774 10.1523 9.02268 9.52962 8.55537C9.41322 8.46801 9.37369 8.33313 9.41959 8.18717C9.44233 8.1149 9.48207 8.06031 9.5239 8.02688C9.56059 7.99757 9.60981 7.97477 9.68664 7.97477C10.475 7.97477 11.152 7.45168 11.3846 6.71244Z" fill="#5E5E5E"/>
<path fill-rule="evenodd" clip-rule="evenodd" d="M11.4899 1.6278e-05C9.7836 -0.000252241 8.74239 -0.00041604 7.87487 0.281458C6.12435 0.850236 4.75192 2.22267 4.18314 3.97319L4.17452 4.00003H3.88249C0.176945 4.00003 -1.41486 8.70211 1.52866 10.953L1.53931 10.9612L4.00622 12.7115C4.09563 12.775 4.1884 12.8334 4.2841 12.8865C4.28547 12.89 4.28684 12.8936 4.28821 12.8972C4.29783 12.9223 4.30767 12.9473 4.31774 12.9724C4.57323 13.607 5.07193 14.3684 5.55155 14.8563C6.33317 15.6512 7.14205 16.0038 8.43371 16.5667L8.51954 16.6041C9.0759 16.8467 9.63847 17.0667 10.1608 17.2272C10.4082 17.3032 10.6579 17.3696 10.9017 17.4178V20H7.65172C7.2375 20 6.90172 20.3358 6.90172 20.75C6.90172 21.1642 7.2375 21.5 7.65172 21.5H15.6517C16.0659 21.5 16.4017 21.1642 16.4017 20.75C16.4017 20.3358 16.0659 20 15.6517 20H12.4017V17.4178C12.6455 17.3696 12.8952 17.3032 13.1426 17.2272C13.665 17.0667 14.2275 16.8467 14.7839 16.6041L14.8697 16.5667C16.1614 16.0038 16.9703 15.6512 17.7519 14.8563C18.2315 14.3684 18.7302 13.607 18.9857 12.9724C18.9969 12.9445 19.0078 12.9167 19.0184 12.8888C19.1162 12.8332 19.2111 12.7727 19.303 12.7076L21.7643 10.9612L21.7749 10.953C24.7184 8.70211 23.1266 4.00003 19.4211 4.00003H19.1289L19.1203 3.97319C18.5515 2.22267 17.1791 0.850236 15.4286 0.281458C14.561 -0.00041604 13.5198 -0.000252241 11.8136 1.6278e-05H11.4899ZM2.42986 9.75383C0.63938 8.37126 1.61558 5.50003 3.88249 5.50003H3.93478C3.90166 6.08514 3.90168 6.78687 3.90172 7.66608L3.90171 9.16602C3.90163 9.79107 3.90157 10.3301 3.9217 10.8123L2.42986 9.75383ZM20.8737 9.75382L19.3817 10.8124C19.4019 10.3304 19.4018 9.79164 19.4017 9.16695L19.4017 7.66603C19.4018 6.78693 19.4018 6.08509 19.3687 5.50003H19.4211C21.688 5.50003 22.6642 8.37126 20.8737 9.75382ZM8.3384 1.70804C8.95011 1.50929 9.73206 1.50003 11.6517 1.50003C13.5714 1.50003 14.3533 1.50929 14.965 1.70804C16.2589 2.12844 17.2733 3.14285 17.6937 4.43671C17.736 4.56689 17.7706 4.70938 17.7984 4.87463C17.8991 5.47223 17.9017 6.27818 17.9017 7.75003V9.05043C17.9017 10.6975 17.8943 11.4674 17.6903 12.1396C17.6624 12.2314 17.6306 12.3217 17.5942 12.4122C17.4126 12.8634 17.0233 13.4578 16.6823 13.8046C16.1228 14.3737 15.5809 14.6203 14.1844 15.2291C13.6582 15.4585 13.1517 15.6552 12.702 15.7934C12.2413 15.935 11.8878 16 11.6517 16C11.4157 16 11.0621 15.935 10.6014 15.7934C10.1518 15.6552 9.64522 15.4585 9.11903 15.2291C7.72257 14.6203 7.18063 14.3737 6.62116 13.8046C6.28017 13.4578 5.89085 12.8634 5.70922 12.4122C5.67171 12.319 5.63912 12.2261 5.61066 12.1314C5.40902 11.4607 5.40172 10.6905 5.40172 9.05043V7.75003C5.40172 6.27818 5.40433 5.47223 5.50501 4.87463C5.53285 4.70938 5.56743 4.56688 5.60973 4.43671C6.03013 3.14285 7.04453 2.12844 8.3384 1.70804Z" fill="#5E5E5E"/>
</svg>
