<svg width="20" height="20" viewBox="0 0 20 20" fill="none" xmlns="http://www.w3.org/2000/svg">
<path d="M8.48306 6.50186C8.56155 6.49306 8.7309 6.5081 9.13358 6.70606C9.53108 6.90147 10.0394 7.21335 10.778 7.66788C11.5162 8.12221 12.0242 8.43578 12.3825 8.70561C12.7409 8.97552 12.8544 9.13429 12.8987 9.24039C13.0338 9.56382 13.0338 9.93618 12.8987 10.2596C12.8544 10.3657 12.7409 10.5245 12.3825 10.7944C12.0242 11.0642 11.5162 11.3778 10.778 11.8321C10.0394 12.2866 9.53108 12.5985 9.13358 12.7939C8.7309 12.9919 8.56155 13.0069 8.48306 12.9981C8.19154 12.9655 7.91131 12.8008 7.72155 12.5224C7.65747 12.4284 7.58227 12.2362 7.54121 11.7592C7.50066 11.288 7.5 10.6568 7.5 9.75C7.5 8.84324 7.50066 8.21196 7.54121 7.7408C7.58227 7.26375 7.65747 7.07161 7.72155 6.97759C7.91131 6.69918 8.19154 6.53452 8.48306 6.50186Z" fill="#893264"/>
<path fill-rule="evenodd" clip-rule="evenodd" d="M9.70475 1.32337e-07H9.79525C11.6318 -8.0335e-06 13.0714 -1.45286e-05 14.2135 0.123728C15.3791 0.250006 16.3234 0.512324 17.1298 1.09815C17.6179 1.45281 18.0472 1.88209 18.4018 2.37024C18.9877 3.17656 19.25 4.12094 19.3763 5.28648C19.5 6.42859 19.5 7.86816 19.5 9.70465V9.79527C19.5 11.6318 19.5 13.0714 19.3763 14.2135C19.25 15.3791 18.9877 16.3234 18.4018 17.1298C18.0472 17.6179 17.6179 18.0472 17.1298 18.4018C16.3234 18.9877 15.3791 19.25 14.2135 19.3763C13.0714 19.5 11.6318 19.5 9.79535 19.5H9.70473C7.86824 19.5 6.42859 19.5 5.28648 19.3763C4.12094 19.25 3.17656 18.9877 2.37024 18.4018C1.88209 18.0472 1.45281 17.6179 1.09815 17.1298C0.512324 16.3234 0.250006 15.3791 0.123728 14.2135C-1.45286e-05 13.0714 -8.0335e-06 11.6318 1.32337e-07 9.79525V9.70475C-8.0335e-06 7.86821 -1.45286e-05 6.42861 0.123728 5.28648C0.250006 4.12094 0.512324 3.17656 1.09815 2.37024C1.45281 1.88209 1.88209 1.45281 2.37024 1.09815C3.17656 0.512324 4.12094 0.250006 5.28648 0.123728C6.42861 -1.45286e-05 7.86821 -8.0335e-06 9.70475 1.32337e-07ZM11.5307 6.36986C10.8337 5.94089 10.2646 5.59061 9.79534 5.35993C9.3238 5.12812 8.83281 4.95329 8.31605 5.01118C7.56915 5.09486 6.90604 5.51076 6.48207 6.13278C6.19434 6.55493 6.09363 7.06731 6.04674 7.61218C5.99998 8.15543 5.99999 8.85168 6 9.71407V9.78592C5.99999 10.6483 5.99998 11.3446 6.04674 11.8878C6.09363 12.4327 6.19434 12.9451 6.48207 13.3672C6.90604 13.9892 7.56915 14.4051 8.31605 14.4888C8.83281 14.5467 9.3238 14.3719 9.79534 14.1401C10.2646 13.9094 10.8337 13.5591 11.5307 13.1302L11.5968 13.0895C12.2945 12.6601 12.8634 12.31 13.2849 11.9926C13.7127 11.6704 14.0837 11.3145 14.2828 10.8377C14.5724 10.1444 14.5724 9.35563 14.2828 8.66227C14.0837 8.18552 13.7127 7.82963 13.2849 7.5074C12.8634 7.19 12.2945 6.83987 11.5968 6.41049L11.5307 6.36986Z" fill="#893264"/>
</svg>
