<svg width="20" height="20" viewBox="0 0 20 20" fill="none" xmlns="http://www.w3.org/2000/svg">
<path fill-rule="evenodd" clip-rule="evenodd" d="M11.5307 6.36986C10.8337 5.94088 10.2646 5.59061 9.79534 5.35993C9.3238 5.12812 8.83281 4.95329 8.31605 5.01118C7.56915 5.09486 6.90604 5.51076 6.48207 6.13278C6.19434 6.55493 6.09363 7.06731 6.04674 7.61218C5.99998 8.15542 5.99999 8.85167 6 9.71404V9.78592C5.99999 10.6483 5.99998 11.3446 6.04674 11.8878C6.09363 12.4327 6.19434 12.9451 6.48207 13.3672C6.90604 13.9892 7.56915 14.4051 8.31605 14.4888C8.83281 14.5467 9.3238 14.3719 9.79534 14.1401C10.2646 13.9094 10.8337 13.5591 11.5308 13.1301L11.5967 13.0895C12.2945 12.6601 12.8634 12.31 13.2849 11.9926C13.7127 11.6704 14.0837 11.3145 14.2828 10.8377C14.5724 10.1444 14.5724 9.35563 14.2828 8.66227C14.0837 8.18552 13.7127 7.82963 13.2849 7.5074C12.8634 7.19001 12.2945 6.83988 11.5968 6.41051L11.5307 6.36986ZM8.48306 6.50186C8.56155 6.49306 8.7309 6.5081 9.13359 6.70606C9.53108 6.90147 10.0394 7.21335 10.778 7.66788C11.5162 8.12221 12.0242 8.43578 12.3825 8.70561C12.7409 8.97553 12.8544 9.13429 12.8987 9.24039C13.0338 9.56382 13.0338 9.93618 12.8987 10.2596C12.8544 10.3657 12.7409 10.5245 12.3825 10.7944C12.0242 11.0642 11.5162 11.3778 10.778 11.8321C10.0394 12.2866 9.53109 12.5985 9.13359 12.7939C8.7309 12.9919 8.56155 13.0069 8.48306 12.9981C8.19154 12.9655 7.91131 12.8008 7.72155 12.5224C7.65747 12.4284 7.58227 12.2362 7.54121 11.7592C7.50066 11.288 7.5 10.6568 7.5 9.75C7.5 8.84324 7.50066 8.21196 7.54121 7.7408C7.58227 7.26375 7.65747 7.07161 7.72155 6.97759C7.91131 6.69918 8.19154 6.53452 8.48306 6.50186Z" fill="#5E5E5E"/>
<path fill-rule="evenodd" clip-rule="evenodd" d="M14.2135 0.123728C13.0714 -1.45286e-05 11.6318 -8.0335e-06 9.79525 1.32337e-07H9.70475C7.86821 -8.0335e-06 6.42861 -1.45286e-05 5.28648 0.123728C4.12094 0.250006 3.17656 0.512324 2.37024 1.09815C1.88209 1.45281 1.45281 1.88209 1.09815 2.37024C0.512324 3.17656 0.250006 4.12094 0.123728 5.28648C-1.45286e-05 6.42861 -8.0335e-06 7.86821 1.32337e-07 9.70475V9.79525C-8.0335e-06 11.6318 -1.45286e-05 13.0714 0.123728 14.2135C0.250006 15.3791 0.512324 16.3234 1.09815 17.1298C1.45281 17.6179 1.88209 18.0472 2.37024 18.4018C3.17656 18.9877 4.12094 19.25 5.28648 19.3763C6.42859 19.5 7.86817 19.5 9.70465 19.5H9.79527C11.6318 19.5 13.0714 19.5 14.2135 19.3763C15.3791 19.25 16.3234 18.9877 17.1298 18.4018C17.6179 18.0472 18.0472 17.6179 18.4018 17.1298C18.9877 16.3234 19.25 15.3791 19.3763 14.2135C19.5 13.0714 19.5 11.6318 19.5 9.79535V9.70473C19.5 7.86824 19.5 6.42859 19.3763 5.28648C19.25 4.12094 18.9877 3.17656 18.4018 2.37024C18.0472 1.88209 17.6179 1.45281 17.1298 1.09815C16.3234 0.512324 15.3791 0.250006 14.2135 0.123728ZM3.25191 2.31168C3.75992 1.94259 4.41013 1.72745 5.44804 1.615C6.49999 1.50103 7.85843 1.5 9.75 1.5C11.6416 1.5 13 1.50103 14.052 1.615C15.0899 1.72745 15.7401 1.94259 16.2481 2.31168C16.6089 2.57382 16.9262 2.89111 17.1883 3.25191C17.5574 3.75992 17.7725 4.41013 17.885 5.44804C17.999 6.49999 18 7.85843 18 9.75C18 11.6416 17.999 13 17.885 14.052C17.7725 15.0899 17.5574 15.7401 17.1883 16.2481C16.9262 16.6089 16.6089 16.9262 16.2481 17.1883C15.7401 17.5574 15.0899 17.7725 14.052 17.885C13 17.999 11.6416 18 9.75 18C7.85843 18 6.49999 17.999 5.44804 17.885C4.41013 17.7725 3.75992 17.5574 3.25191 17.1883C2.89111 16.9262 2.57382 16.6089 2.31168 16.2481C1.94259 15.7401 1.72745 15.0899 1.615 14.052C1.50103 13 1.5 11.6416 1.5 9.75C1.5 7.85843 1.50103 6.49999 1.615 5.44804C1.72745 4.41013 1.94259 3.75992 2.31168 3.25191C2.57382 2.89111 2.89111 2.57382 3.25191 2.31168Z" fill="#5E5E5E"/>
</svg>
