<svg width="65" height="68" viewBox="0 0 65 68" fill="none" xmlns="http://www.w3.org/2000/svg">
<rect x="2" y="2" width="61" height="64" rx="30.5" fill="#893264"/>
<rect x="2" y="2" width="61" height="64" rx="30.5" stroke="white" stroke-width="4"/>
<path d="M18.0004 27.436C17.9886 26.2022 18.2184 24.9782 18.6767 23.8346C19.135 22.6911 19.8126 21.6507 20.6704 20.7734C21.5282 19.8962 22.5493 19.1994 23.6748 18.7234C24.8002 18.2474 26.0077 18.0015 27.2276 18H33.8184C35.8109 18.0032 37.749 18.6579 39.3437 19.8662C40.9383 21.0746 42.1041 22.772 42.6672 24.7053C40.9914 24.8005 39.4149 25.5397 38.2601 26.7718C37.1053 28.0038 36.4595 29.6356 36.4547 31.3333V36.6667C36.4547 37.0203 36.5936 37.3594 36.8408 37.6095C37.088 37.8595 37.4233 38 37.7729 38C38.1225 38 38.4577 37.8595 38.7049 37.6095C38.9521 37.3594 39.091 37.0203 39.091 36.6667V31.56C39.0682 30.5067 39.4422 29.484 40.1371 28.6992C40.8319 27.9144 41.7958 27.4261 42.8333 27.3333C43.3702 27.3041 43.9073 27.386 44.4119 27.5739C44.9164 27.7618 45.3778 28.0518 45.7678 28.4262C46.1577 28.8006 46.4682 29.2515 46.68 29.7513C46.8919 30.2512 47.0008 30.7895 47 31.3333V35.4333C46.9492 36.9976 46.5352 38.5278 45.7914 39.9002C45.0477 41.2726 43.995 42.4487 42.7186 43.3333H20.4087L19.9118 42.6147C18.6675 40.8211 18.0001 38.6831 18.0004 36.492V31.9253C18.7984 32.4052 19.7084 32.6611 20.6368 32.6667H32.5002C32.8498 32.6667 33.1851 32.5262 33.4323 32.2761C33.6795 32.0261 33.8184 31.687 33.8184 31.3333C33.8184 30.9797 33.6795 30.6406 33.4323 30.3905C33.1851 30.1405 32.8498 30 32.5002 30H20.6368C19.9531 30.0062 19.2943 29.7413 18.8015 29.262C18.3087 28.7827 18.0211 28.1272 18.0004 27.436ZM20.6368 46V47.3333C20.6368 48.0406 20.9145 48.7189 21.4089 49.219C21.9033 49.719 22.5739 50 23.2731 50H39.091C39.7902 50 40.4608 49.719 40.9552 49.219C41.4496 48.7189 41.7273 48.0406 41.7273 47.3333V46H20.6368Z" fill="white"/>
</svg>
