<svg width="65" height="68" viewBox="0 0 65 68" fill="none" xmlns="http://www.w3.org/2000/svg">
<rect x="2" y="2" width="61" height="64" rx="30.5" fill="#893264"/>
<rect x="2" y="2" width="61" height="64" rx="30.5" stroke="white" stroke-width="4"/>
<path d="M43.0455 27.5013V27.3333C43.0427 24.8588 42.0696 22.4865 40.3398 20.7368C38.6099 18.9871 36.2646 18.0028 33.8182 18L27.2273 18C24.7809 18.0028 22.4355 18.9871 20.7057 20.7368C18.9759 22.4865 18.0028 24.8588 18 27.3333V36.4907C17.9965 38.6827 18.6642 40.822 19.9114 42.6147L20.6364 43.6613V50H43.0455V43.812L43.7217 43.1627C44.7555 42.1647 45.5789 40.9655 46.1423 39.6371C46.7057 38.3087 46.9975 36.8788 47 35.4333V32.6667C46.9985 31.4845 46.6095 30.3362 45.8939 29.4016C45.1784 28.4669 44.1766 27.7986 43.0455 27.5013ZM23.2727 47.3333V44.6667H40.4091V47.3333H23.2727ZM44.3636 35.4333C44.3615 36.5175 44.1424 37.59 43.7197 38.5864C43.297 39.5827 42.6793 40.4822 41.9039 41.2307L41.1038 42H22.7046L22.0692 41.084C21.1345 39.7391 20.634 38.1346 20.6364 36.4907V31.9253C21.4343 32.4052 22.3444 32.6611 23.2727 32.6667H33.8182V30H23.2727C22.5735 30 21.903 29.719 21.4085 29.219C20.9141 28.7189 20.6364 28.0406 20.6364 27.3333C20.6385 25.5659 21.3335 23.8714 22.5691 22.6216C23.8047 21.3718 25.4799 20.6688 27.2273 20.6667H33.8182C35.5656 20.6688 37.2408 21.3718 38.4764 22.6216C39.7119 23.8714 40.407 25.5659 40.4091 27.3333V27.5013C39.2779 27.7986 38.2762 28.4669 37.5606 29.4016C36.845 30.3362 36.4561 31.4845 36.4545 32.6667V36.8573H39.0909V32.6667C39.0909 31.9594 39.3687 31.2811 39.8631 30.781C40.3575 30.281 41.0281 30 41.7273 30C42.4265 30 43.0971 30.281 43.5915 30.781C44.0859 31.2811 44.3636 31.9594 44.3636 32.6667V35.4333Z" fill="white"/>
</svg>
