<svg width="24" height="24" viewBox="0 0 24 24" fill="none" xmlns="http://www.w3.org/2000/svg">
<path fill-rule="evenodd" clip-rule="evenodd" d="M11.8385 1.24999C10.1322 1.24972 9.09102 1.24955 8.2235 1.53143C6.47298 2.10021 5.10055 3.47264 4.53177 5.22316L4.52316 5.25H4.23112C0.525578 5.25 -1.06623 9.95208 1.8773 12.203L1.88795 12.2111L4.35486 13.9615C4.44426 14.025 4.53703 14.0833 4.63274 14.1364C4.64365 14.1651 4.65486 14.1937 4.66638 14.2223C4.92186 14.8569 5.42056 15.6184 5.90018 16.1062C6.6818 16.9012 7.49068 17.2537 8.78234 17.8167L8.86818 17.8541C9.42453 18.0966 9.9871 18.3167 10.5094 18.4772C10.7568 18.5532 11.0066 18.6195 11.2503 18.6677V21.25H8.00035C7.58614 21.25 7.25035 21.5858 7.25035 22C7.25035 22.4142 7.58614 22.75 8.00035 22.75H16.0003C16.4146 22.75 16.7503 22.4142 16.7503 22C16.7503 21.5858 16.4146 21.25 16.0003 21.25H12.7503V18.6677C12.9941 18.6195 13.2439 18.5532 13.4913 18.4772C14.0136 18.3167 14.5762 18.0966 15.1325 17.8541L15.2184 17.8167C16.51 17.2537 17.3189 16.9012 18.1005 16.1062C18.5801 15.6184 19.0788 14.8569 19.3343 14.2223C19.3455 14.1945 19.3564 14.1667 19.3671 14.1388C19.4648 14.0832 19.5598 14.0227 19.6516 13.9575L22.1129 12.2111L22.1235 12.203C25.0671 9.95208 23.4753 5.25 19.7697 5.25H19.4775L19.4689 5.22316C18.9001 3.47264 17.5277 2.10021 15.7772 1.53143C14.9097 1.24955 13.8685 1.24972 12.1622 1.24999H11.8385ZM4.23112 6.75H4.28341C4.25029 7.33511 4.25031 8.03684 4.25035 8.91605L4.25034 10.416C4.25027 11.041 4.2502 11.5801 4.27033 12.0623L2.77849 11.0038C0.988013 9.62123 1.96421 6.75 4.23112 6.75ZM21.2224 11.0038L19.7304 12.0624C19.7505 11.5804 19.7504 11.0416 19.7504 10.4169L19.7504 8.91599C19.7504 8.0369 19.7504 7.33506 19.7173 6.75H19.7697C22.0366 6.75 23.0128 9.62123 21.2224 11.0038Z" fill="white"/>
<path d="M13.6525 6.95248C13.003 6.58214 12.4984 6.29447 12.0887 6.10785C11.6774 5.92053 11.3204 5.81474 10.9732 5.85078C10.4223 5.90796 9.92071 6.19344 9.59385 6.63773C9.38739 6.91837 9.30143 7.27856 9.26001 7.72449C9.21875 8.16863 9.21875 8.74427 9.21875 9.48459V9.51545C9.21875 10.2558 9.21875 10.8314 9.26001 11.2756C9.30143 11.7215 9.38739 12.0817 9.59385 12.3623C9.92071 12.8066 10.4223 13.0921 10.9732 13.1493C11.3204 13.1853 11.6774 13.0795 12.0887 12.8922C12.4984 12.7056 13.0029 12.4179 13.6525 12.0476L13.6788 12.0325C14.3283 11.6622 14.8328 11.3745 15.2014 11.1174C15.571 10.8595 15.8435 10.6064 15.9864 10.2895C16.2129 9.78704 16.2129 9.21301 15.9864 8.71055C15.8435 8.39367 15.571 8.14057 15.2014 7.88267C14.8328 7.6255 14.3283 7.33782 13.6788 6.96751L13.6525 6.95248Z" fill="#253656"/>
</svg>
