<svg width="22" height="24" viewBox="0 0 22 24" fill="none" xmlns="http://www.w3.org/2000/svg">
<path d="M0.000329943 7.077C-0.00864896 6.15162 0.165715 5.23361 0.513359 4.37597C0.861003 3.51832 1.37505 2.73801 2.02582 2.08007C2.6766 1.42212 3.45123 0.899565 4.30501 0.542554C5.15878 0.185543 6.07481 0.00114475 7.00022 0L12.0001 0C13.5117 0.00242967 14.982 0.493397 16.1917 1.39969C17.4015 2.30597 18.2859 3.57903 18.713 5.029C17.4418 5.1004 16.2458 5.65481 15.3697 6.57884C14.4937 7.50287 14.0037 8.72669 14.0001 10V14C14.0001 14.2652 14.1055 14.5196 14.293 14.7071C14.4805 14.8946 14.7349 15 15.0001 15C15.2653 15 15.5197 14.8946 15.7072 14.7071C15.8947 14.5196 16.0001 14.2652 16.0001 14V10.17C15.9828 9.38003 16.2665 8.61302 16.7936 8.02441C17.3208 7.43579 18.052 7.06959 18.839 7C19.2463 6.97811 19.6538 7.03951 20.0366 7.18044C20.4193 7.32137 20.7693 7.53888 21.0652 7.81966C21.361 8.10045 21.5965 8.43862 21.7573 8.81351C21.918 9.18839 22.0006 9.59211 22 10V13.075C21.9615 14.2482 21.6474 15.3958 21.0832 16.4251C20.5189 17.4545 19.7203 18.3365 18.752 19H1.8273L1.45031 18.461C0.506374 17.1158 5.75969e-05 15.5123 0.000329943 13.869V10.444C0.605667 10.8039 1.29606 10.9959 2.0003 11H11.0002C11.2654 11 11.5197 10.8946 11.7073 10.7071C11.8948 10.5196 12.0001 10.2652 12.0001 10C12.0001 9.73478 11.8948 9.48043 11.7073 9.29289C11.5197 9.10536 11.2654 9 11.0002 9H2.0003C1.48168 9.00468 0.981869 8.80599 0.608009 8.44652C0.23415 8.08705 0.0160014 7.59541 0.000329943 7.077ZM2.0003 21V22C2.0003 22.5304 2.21101 23.0391 2.58608 23.4142C2.96114 23.7893 3.46984 24 4.00027 24H16.0001C16.5305 24 17.0392 23.7893 17.4143 23.4142C17.7893 23.0391 18.0001 22.5304 18.0001 22V21H2.0003Z" fill="white"/>
</svg>
