<svg width="259" height="259" viewBox="0 0 259 259" fill="none" xmlns="http://www.w3.org/2000/svg">
<path d="M129.5 247.568C196.898 247.568 251.536 216.022 251.536 177.109C251.536 138.196 196.898 106.651 129.5 106.651C62.1016 106.651 7.46436 138.196 7.46436 177.109C7.46436 216.022 62.1016 247.568 129.5 247.568Z" fill="#F0F0F0"/>
<path d="M104.248 230.5C127.489 230.5 146.33 219.623 146.33 206.205C146.33 192.788 127.489 181.911 104.248 181.911C81.0062 181.911 62.1653 192.788 62.1653 206.205C62.1653 219.623 81.0062 230.5 104.248 230.5Z" fill="#E0E0E0"/>
<path d="M223.921 175.809L218.985 172.96C218.985 172.96 217.778 162.393 218.581 154.209C219.71 142.709 227.138 128.868 235.996 132.121C244.853 135.374 231.935 147.081 229.06 156.835C226.185 166.589 223.921 175.809 223.921 175.809Z" fill="#893264"/>
<path opacity="0.15" d="M223.921 175.809L218.985 172.96C218.985 172.96 217.778 162.393 218.581 154.209C219.71 142.709 227.138 128.868 235.996 132.121C244.853 135.374 231.935 147.081 229.06 156.835C226.185 166.589 223.921 175.809 223.921 175.809Z" fill="black"/>
<path d="M221.326 174.613C221.405 174.609 221.479 174.574 221.532 174.516C221.585 174.458 221.614 174.381 221.611 174.302C220.746 148.749 233.468 135.892 233.592 135.768C233.648 135.712 233.68 135.635 233.68 135.555C233.68 135.476 233.648 135.399 233.592 135.343C233.565 135.315 233.532 135.293 233.496 135.278C233.46 135.263 233.421 135.256 233.382 135.256C233.343 135.256 233.305 135.263 233.269 135.278C233.233 135.293 233.2 135.315 233.173 135.343C233.038 135.467 220.134 148.511 221.01 174.323C221.011 174.363 221.02 174.402 221.037 174.438C221.054 174.474 221.078 174.507 221.107 174.534C221.136 174.561 221.171 174.582 221.209 174.595C221.246 174.609 221.286 174.615 221.326 174.613Z" fill="white"/>
<path d="M227.024 177.586L223.512 175.561C223.512 175.561 222.911 168.309 226.47 159.503C229.578 151.836 237.244 145.47 241.108 146.806C244.973 148.143 244.874 150.883 242.989 153.758C241.103 156.633 229.65 163.476 227.024 177.586Z" fill="#893264"/>
<path d="M225.17 176.819C225.249 176.818 225.324 176.786 225.381 176.73C225.437 176.674 225.469 176.598 225.47 176.519C225.397 160.357 240.57 149.438 240.725 149.329C240.757 149.307 240.785 149.278 240.806 149.245C240.827 149.212 240.841 149.175 240.847 149.136C240.854 149.098 240.852 149.058 240.843 149.02C240.833 148.982 240.816 148.946 240.792 148.915C240.747 148.851 240.678 148.807 240.6 148.794C240.523 148.78 240.443 148.798 240.378 148.842C240.223 148.951 224.802 160.057 224.869 176.519C224.869 176.599 224.901 176.675 224.957 176.731C225.013 176.788 225.09 176.819 225.17 176.819Z" fill="white"/>
<path d="M41.2638 169.464L45.8222 166.387C45.8222 166.387 47.8268 154.473 45.962 143.963C43.3409 129.22 33.1519 124.32 29.5259 125.874C25.8999 127.428 25.1229 131.815 31.8931 140.228C35.9076 145.175 41.1239 155.737 41.2638 169.464Z" fill="#893264"/>
<g opacity="0.15">
<path d="M41.2638 169.464L45.8222 166.387C45.8222 166.387 47.8268 154.473 45.962 143.963C43.3409 129.22 33.1519 124.32 29.5259 125.874C25.8999 127.428 25.1229 131.815 31.8931 140.228C35.9076 145.175 41.1239 155.737 41.2638 169.464Z" fill="black"/>
</g>
<path d="M42.8282 163.558H42.7816C42.735 163.556 42.6896 163.543 42.6483 163.521C42.607 163.499 42.5707 163.469 42.5419 163.433C42.513 163.396 42.4922 163.354 42.4809 163.308C42.4695 163.263 42.4678 163.216 42.4759 163.17C44.1232 149.293 38.2646 134.229 31.888 128.236C31.8267 128.174 31.7922 128.09 31.7922 128.003C31.7922 127.916 31.8267 127.832 31.888 127.77C31.9184 127.739 31.9547 127.714 31.9947 127.697C32.0347 127.681 32.0777 127.672 32.1211 127.672C32.1645 127.672 32.2075 127.681 32.2475 127.697C32.2876 127.714 32.3238 127.739 32.3542 127.77C38.8499 133.872 44.8173 149.184 43.1493 163.263C43.1396 163.343 43.1019 163.416 43.043 163.47C42.9842 163.524 42.908 163.555 42.8282 163.558Z" fill="white"/>
<path d="M29.3291 177.513C28.6039 177.949 26.4905 176.379 25.9051 176.001C24.902 175.346 24.0848 174.443 23.5327 173.38C22.9133 172.174 22.6835 170.806 22.8748 169.464C22.9809 168.763 23.135 168.071 23.3359 167.392C23.5172 166.713 23.6985 166.035 23.8539 165.351C24.0836 164.686 24.1718 163.98 24.1129 163.279C23.9108 161.896 22.6625 160.948 21.5229 160.135C20.2693 159.228 18.9329 158.031 18.9329 156.364C18.9968 155.053 19.4983 153.802 20.3574 152.81C21.1344 151.774 22.0668 150.873 22.7661 149.79C23.3129 149.04 23.592 148.128 23.5586 147.2C23.4685 146.628 23.2642 146.08 22.9577 145.589C22.3465 144.512 21.5539 143.517 21.124 142.372C20.6941 141.228 20.7251 139.756 21.642 138.902C22.3724 138.202 23.4861 138.088 24.4962 138.135C25.448 138.23 26.3675 138.532 27.1898 139.021C29.8678 140.445 31.4426 143.553 34.276 144.636C35.369 145.05 36.5604 145.123 37.6948 145.403C38.8292 145.682 39.9999 146.237 40.5438 147.267C41.6161 149.314 39.7461 151.893 40.5127 154.064C41.1965 155.991 43.1027 156.695 44.1802 158.42C44.6175 159.186 44.7989 160.072 44.6982 160.948C44.6374 162.427 44.3056 163.883 43.7192 165.242C43.0447 166.652 42.2835 168.019 41.44 169.334C41.44 169.334 29.4379 177.446 29.3291 177.513Z" fill="#893264"/>
<path d="M36.3326 173.219C36.289 173.219 36.2461 173.209 36.2061 173.192C36.1661 173.175 36.13 173.15 36.0997 173.118C36.0694 173.087 36.0455 173.05 36.0295 173.01C36.0134 172.969 36.0056 172.926 36.0062 172.882C36.2963 159.767 29.842 145.428 25.2733 141.284C25.2083 141.226 25.1692 141.144 25.1643 141.057C25.1595 140.969 25.1893 140.884 25.2474 140.818C25.2778 140.787 25.314 140.763 25.3541 140.746C25.3941 140.729 25.4371 140.72 25.4805 140.72C25.5239 140.72 25.5669 140.729 25.6069 140.746C25.6469 140.763 25.6832 140.787 25.7136 140.818C30.3756 145.014 36.9594 159.601 36.6641 172.898C36.6634 172.941 36.6543 172.983 36.6373 173.023C36.6203 173.062 36.5956 173.097 36.5649 173.127C36.5341 173.157 36.4977 173.181 36.4579 173.196C36.418 173.212 36.3754 173.22 36.3326 173.219Z" fill="white"/>
<path d="M33.9134 157.239C33.8828 157.247 33.8508 157.247 33.8202 157.239C29.5829 156.016 24.3304 155.892 24.2786 155.887C24.2353 155.886 24.1926 155.877 24.1529 155.86C24.1132 155.842 24.0774 155.817 24.0475 155.786C24.0176 155.755 23.9942 155.718 23.9788 155.677C23.9633 155.637 23.9561 155.594 23.9574 155.55C23.9566 155.507 23.9649 155.463 23.9817 155.423C23.9986 155.382 24.0236 155.346 24.0553 155.316C24.0869 155.286 24.1245 155.262 24.1656 155.247C24.2067 155.232 24.2505 155.226 24.2941 155.229C24.3459 155.229 29.6813 155.359 34.0015 156.602C34.0849 156.627 34.1551 156.684 34.1968 156.761C34.2385 156.837 34.2484 156.927 34.2242 157.011C34.204 157.077 34.1628 157.136 34.1068 157.177C34.0507 157.218 33.9829 157.24 33.9134 157.239Z" fill="white"/>
<path d="M156.001 160.445L154.038 159.311C153.711 159.098 153.438 158.812 153.243 158.474C153.048 158.137 152.935 157.758 152.914 157.368V75.773C152.935 75.3842 153.047 75.0059 153.242 74.6685C153.436 74.3311 153.707 74.0441 154.032 73.8305L208.604 42.3258C208.951 42.1496 209.336 42.0579 209.725 42.0579C210.115 42.0579 210.499 42.1496 210.847 42.3258L212.81 43.4602C213.137 43.6726 213.409 43.9592 213.605 44.2968C213.8 44.6343 213.913 45.0133 213.934 45.4027V126.998C213.913 127.387 213.8 127.765 213.606 128.103C213.412 128.44 213.141 128.727 212.815 128.941L158.244 160.45C157.896 160.627 157.512 160.719 157.122 160.718C156.732 160.717 156.348 160.623 156.001 160.445Z" fill="#455A64"/>
<path d="M213.934 45.2214C213.856 44.6412 213.385 44.4288 212.82 44.7552L158.244 76.2651C157.914 76.4722 157.641 76.759 157.451 77.0991L153.24 74.6697C153.428 74.327 153.701 74.0381 154.033 73.8305L208.604 42.3258C208.951 42.1496 209.336 42.0579 209.725 42.0579C210.115 42.0579 210.499 42.1496 210.847 42.3258L212.81 43.4602C213.113 43.6554 213.371 43.9138 213.565 44.2178C213.759 44.5218 213.885 44.8642 213.934 45.2214Z" fill="#455A64"/>
<path d="M158.052 160.539C157.721 160.673 157.364 160.734 157.007 160.719C156.649 160.704 156.299 160.612 155.98 160.45L154.012 159.311C153.686 159.097 153.415 158.81 153.221 158.473C153.027 158.135 152.914 157.757 152.893 157.368V75.773C152.906 75.3835 153.018 75.0038 153.219 74.6697L157.431 77.0991C157.226 77.4336 157.112 77.8156 157.099 78.2076V159.803C157.12 160.445 157.524 160.741 158.052 160.539Z" fill="#263238"/>
<path d="M157.12 78.218V159.803C157.12 160.518 157.638 160.808 158.244 160.451L212.815 128.941C213.141 128.727 213.412 128.44 213.606 128.103C213.8 127.765 213.913 127.387 213.934 126.998V45.4027C213.934 44.6879 213.416 44.3978 212.815 44.7552L158.244 76.2651C157.915 76.4785 157.642 76.7668 157.447 77.1063C157.251 77.4458 157.139 77.8268 157.12 78.218Z" fill="#37474F"/>
<path d="M144.377 109.298C143.672 108.878 140.404 107.019 140.233 106.92C140.1 106.841 139.986 106.732 139.9 106.603C139.815 106.474 139.759 106.327 139.738 106.173C139.716 106.02 139.73 105.863 139.777 105.716C139.824 105.568 139.904 105.433 140.01 105.32L152.914 91.4788L157.12 93.8926L144.222 107.744C144.12 107.852 144.043 107.98 143.996 108.12C143.948 108.26 143.931 108.409 143.946 108.556C143.961 108.704 144.007 108.846 144.081 108.974C144.155 109.102 144.256 109.212 144.377 109.298Z" fill="#455A64"/>
<path d="M157.12 93.9082L144.222 107.744C144.078 107.897 143.985 108.09 143.953 108.297C143.922 108.504 143.954 108.716 144.046 108.904C144.137 109.093 144.283 109.249 144.466 109.353C144.648 109.456 144.857 109.502 145.066 109.484L157.12 108.49V93.9082Z" fill="#37474F"/>
<path d="M185.527 68.9976C191.888 65.325 197.042 68.3035 197.042 75.6487C197.042 82.994 191.888 91.9191 185.527 95.5917C179.166 99.2644 174.012 96.2859 174.012 88.9458C174.012 81.6058 179.166 72.6702 185.527 68.9976Z" fill="#893264"/>
<path d="M185.444 74.7785C187.516 73.5871 189.179 74.5506 189.179 76.9334C189.108 78.2286 188.733 79.489 188.084 80.6122C187.435 81.7354 186.531 82.6899 185.444 83.398C183.372 84.5894 181.704 83.6259 181.704 81.2431C181.775 79.9474 182.151 78.6867 182.801 77.5635C183.451 76.4402 184.356 75.4861 185.444 74.7785Z" fill="white"/>
<path d="M192.81 87.4798C192.81 83.5689 190.059 81.9787 186.672 83.9367L184.553 85.1592C181.165 87.1172 178.415 91.8932 178.415 95.7937V96.866C179.054 97.0704 179.722 97.1735 180.394 97.1716C182.211 97.1098 183.98 96.5741 185.527 95.6176C188.472 93.8039 190.963 91.3411 192.81 88.4174V87.4798Z" fill="white"/>
<path d="M178.233 131.95L192.82 123.527C193.442 123.17 193.944 123.46 193.944 124.175V128.873C193.923 129.263 193.81 129.642 193.615 129.979C193.42 130.317 193.147 130.603 192.82 130.816L178.233 139.238C177.612 139.596 177.109 139.306 177.109 138.591V133.893C177.131 133.503 177.243 133.124 177.439 132.787C177.634 132.449 177.906 132.162 178.233 131.95Z" fill="#893264"/>
<path d="M171.09 121.456L199.948 104.786C200.689 104.356 201.295 104.703 201.295 105.563V107.309C201.27 107.776 201.134 108.231 200.9 108.636C200.666 109.041 200.34 109.385 199.948 109.64L171.075 126.309C170.334 126.739 169.733 126.392 169.733 125.532V123.802C169.757 123.331 169.892 122.873 170.128 122.465C170.364 122.057 170.694 121.711 171.09 121.456Z" fill="#FAFAFA"/>
<path d="M174.468 109.391C174.861 109.163 175.167 109.127 175.384 109.288C175.602 109.448 175.711 109.806 175.711 110.355C175.722 110.856 175.61 111.352 175.384 111.8C175.181 112.205 174.862 112.54 174.468 112.763L173.691 113.214V114.887C173.689 114.945 173.675 115.001 173.649 115.053C173.631 115.1 173.598 115.14 173.556 115.167L173.162 115.395C173.149 115.405 173.132 115.41 173.116 115.41C173.099 115.41 173.082 115.405 173.069 115.395C173.041 115.36 173.028 115.315 173.033 115.27V110.427C173.032 110.37 173.045 110.313 173.069 110.261C173.089 110.215 173.121 110.176 173.162 110.147L174.468 109.391ZM173.691 112.276L174.442 111.841C174.623 111.739 174.776 111.593 174.887 111.417C175.005 111.208 175.062 110.972 175.053 110.733C175.053 110.453 174.996 110.292 174.887 110.246C174.81 110.227 174.73 110.226 174.653 110.243C174.576 110.26 174.503 110.295 174.442 110.344L173.691 110.779V112.276Z" fill="#FAFAFA"/>
<path d="M177.881 107.418C177.933 107.387 177.974 107.387 178 107.418C178.033 107.464 178.056 107.517 178.068 107.573L179.264 111.624C179.264 111.624 179.264 111.655 179.264 111.67C179.263 111.728 179.249 111.785 179.223 111.836C179.204 111.883 179.172 111.923 179.129 111.95L178.777 112.152C178.715 112.188 178.668 112.194 178.643 112.152C178.617 112.126 178.6 112.094 178.591 112.059L178.378 111.349L176.824 112.24L176.617 113.193C176.602 113.245 176.583 113.295 176.56 113.344C176.534 113.407 176.487 113.458 176.426 113.489L176.073 113.691C176.06 113.702 176.044 113.708 176.027 113.708C176.01 113.708 175.993 113.702 175.98 113.691C175.953 113.657 175.94 113.614 175.944 113.571C175.941 113.553 175.941 113.533 175.944 113.514L177.135 108.086C177.15 108.006 177.172 107.928 177.203 107.853C177.228 107.798 177.269 107.753 177.322 107.723L177.881 107.418ZM178.15 110.557L177.632 108.728L177.114 111.173L178.15 110.557Z" fill="#FAFAFA"/>
<path d="M181.077 105.496C181.251 105.386 181.448 105.321 181.652 105.304C181.797 105.291 181.942 105.324 182.067 105.397C182.18 105.471 182.269 105.578 182.32 105.703C182.377 105.831 182.409 105.968 182.414 106.107C182.417 106.165 182.405 106.222 182.377 106.273C182.359 106.32 182.326 106.36 182.284 106.387L181.942 106.584C181.885 106.615 181.844 106.62 181.818 106.584C181.786 106.563 181.759 106.534 181.74 106.501C181.719 106.454 181.69 106.412 181.652 106.378C181.615 106.343 181.571 106.316 181.523 106.299C181.365 106.276 181.205 106.317 181.077 106.413C180.993 106.467 180.914 106.527 180.839 106.594C180.762 106.665 180.694 106.745 180.637 106.832C180.582 106.917 180.537 107.007 180.502 107.102C180.472 107.192 180.456 107.286 180.456 107.381C180.449 107.469 180.466 107.556 180.502 107.635C180.518 107.663 180.541 107.687 180.568 107.704C180.595 107.721 180.626 107.731 180.658 107.734C180.754 107.75 180.852 107.75 180.948 107.734L181.398 107.635C181.566 107.585 181.741 107.564 181.916 107.573C182.041 107.573 182.163 107.613 182.263 107.687C182.358 107.767 182.427 107.873 182.46 107.993C182.511 108.16 182.534 108.335 182.528 108.511C182.527 108.742 182.494 108.972 182.429 109.194C182.366 109.423 182.274 109.642 182.155 109.847C182.029 110.057 181.88 110.252 181.709 110.427C181.535 110.608 181.336 110.763 181.119 110.888C180.959 110.985 180.784 111.054 180.601 111.09C180.452 111.119 180.298 111.106 180.155 111.054C180.026 110.994 179.919 110.894 179.85 110.769C179.765 110.609 179.719 110.432 179.715 110.251C179.714 110.192 179.727 110.134 179.751 110.08C179.774 110.036 179.808 109.999 179.85 109.971L180.191 109.775C180.243 109.743 180.285 109.733 180.316 109.749C180.347 109.764 180.368 109.79 180.388 109.837C180.41 109.89 180.437 109.94 180.471 109.987C180.503 110.032 180.549 110.066 180.601 110.085C180.669 110.101 180.74 110.101 180.808 110.085C180.918 110.059 181.023 110.016 181.119 109.956C181.219 109.899 181.314 109.833 181.404 109.759C181.578 109.621 181.716 109.443 181.808 109.241C181.849 109.137 181.87 109.026 181.87 108.915C181.875 108.874 181.871 108.833 181.86 108.794C181.848 108.755 181.829 108.718 181.802 108.687C181.774 108.662 181.741 108.644 181.706 108.633C181.67 108.622 181.632 108.619 181.595 108.625C181.478 108.629 181.361 108.649 181.248 108.682C181.113 108.713 180.958 108.749 180.777 108.78C180.638 108.815 180.494 108.825 180.352 108.811C180.24 108.804 180.134 108.758 180.052 108.682C179.962 108.594 179.899 108.482 179.87 108.36C179.829 108.18 179.809 107.996 179.813 107.811C179.813 107.583 179.846 107.356 179.912 107.138C179.974 106.913 180.064 106.697 180.181 106.496C180.293 106.295 180.429 106.109 180.585 105.941C180.727 105.77 180.893 105.62 181.077 105.496Z" fill="#FAFAFA"/>
<path d="M184.48 103.538C184.653 103.425 184.85 103.357 185.055 103.341C185.2 103.329 185.345 103.361 185.47 103.434C185.581 103.51 185.667 103.616 185.718 103.74C185.775 103.867 185.807 104.005 185.812 104.144C185.818 104.202 185.805 104.26 185.775 104.31C185.757 104.357 185.725 104.396 185.682 104.424L185.34 104.621C185.289 104.652 185.247 104.662 185.216 104.621C185.183 104.6 185.158 104.569 185.144 104.532C185.096 104.442 185.017 104.371 184.921 104.336C184.843 104.324 184.765 104.328 184.689 104.348C184.613 104.368 184.543 104.402 184.48 104.45C184.394 104.502 184.312 104.563 184.237 104.631C184.162 104.702 184.096 104.782 184.04 104.869C183.983 104.952 183.938 105.043 183.905 105.139C183.873 105.228 183.856 105.323 183.854 105.418C183.848 105.505 183.864 105.593 183.9 105.672C183.916 105.7 183.939 105.723 183.966 105.741C183.993 105.758 184.024 105.768 184.056 105.77C184.152 105.787 184.25 105.787 184.346 105.77L184.796 105.672C184.965 105.625 185.14 105.604 185.314 105.61C185.44 105.609 185.561 105.649 185.662 105.724C185.756 105.805 185.826 105.911 185.864 106.029C185.909 106.198 185.93 106.373 185.926 106.547C185.925 106.779 185.892 107.009 185.827 107.231C185.764 107.46 185.672 107.679 185.553 107.884C185.428 108.096 185.278 108.292 185.107 108.469C184.932 108.645 184.736 108.799 184.522 108.925C184.362 109.022 184.187 109.09 184.004 109.127C183.857 109.155 183.704 109.143 183.564 109.091C183.432 109.033 183.322 108.932 183.253 108.806C183.168 108.647 183.123 108.469 183.123 108.288C183.117 108.23 183.13 108.172 183.16 108.122C183.178 108.075 183.21 108.035 183.253 108.008L183.595 107.811C183.646 107.78 183.693 107.77 183.719 107.785C183.737 107.794 183.753 107.806 183.766 107.821C183.778 107.836 183.787 107.854 183.792 107.874C183.815 107.926 183.843 107.976 183.874 108.024C183.908 108.069 183.955 108.104 184.009 108.122C184.077 108.138 184.148 108.138 184.216 108.122C184.326 108.096 184.431 108.053 184.527 107.993C184.625 107.934 184.719 107.868 184.807 107.796C184.898 107.725 184.978 107.641 185.045 107.547C185.112 107.458 185.168 107.36 185.211 107.257C185.252 107.153 185.273 107.043 185.273 106.931C185.278 106.89 185.274 106.849 185.263 106.81C185.251 106.771 185.232 106.734 185.206 106.703C185.178 106.678 185.145 106.66 185.109 106.649C185.073 106.638 185.035 106.636 184.998 106.641C184.883 106.648 184.768 106.667 184.657 106.698C184.522 106.729 184.361 106.765 184.185 106.796C184.045 106.831 183.899 106.841 183.755 106.827C183.643 106.821 183.536 106.775 183.455 106.698C183.367 106.609 183.306 106.498 183.279 106.377C183.233 106.199 183.212 106.016 183.217 105.833C183.218 105.603 183.252 105.375 183.315 105.154C183.379 104.93 183.469 104.714 183.584 104.512C183.696 104.31 183.834 104.124 183.994 103.957C184.133 103.793 184.297 103.652 184.48 103.538Z" fill="#FAFAFA"/>
<path d="M188.257 104.185L187.837 106.667C187.825 106.741 187.804 106.814 187.775 106.884C187.755 106.94 187.717 106.987 187.666 107.019L187.273 107.247C187.221 107.278 187.184 107.278 187.159 107.247C187.124 107.204 187.104 107.151 187.102 107.097L186.48 102.719C186.48 102.719 186.48 102.678 186.48 102.662C186.481 102.605 186.496 102.548 186.521 102.497C186.541 102.451 186.573 102.411 186.615 102.383L186.972 102.176C187.002 102.163 187.035 102.163 187.065 102.176C187.096 102.176 187.117 102.217 187.127 102.3L187.537 105.247L187.894 103.035C187.903 102.98 187.919 102.926 187.941 102.875C187.961 102.809 188.006 102.754 188.065 102.719L188.464 102.486C188.521 102.455 188.562 102.46 188.588 102.486C188.611 102.519 188.626 102.556 188.635 102.595L188.997 104.393L189.407 100.974C189.412 100.906 189.431 100.841 189.464 100.782C189.488 100.743 189.52 100.71 189.557 100.684L189.914 100.476C189.928 100.466 189.944 100.461 189.961 100.461C189.978 100.461 189.994 100.466 190.008 100.476C190.022 100.493 190.034 100.513 190.041 100.535C190.048 100.556 190.051 100.578 190.049 100.601C190.051 100.621 190.051 100.642 190.049 100.663L189.427 105.755C189.417 105.829 189.398 105.902 189.37 105.972C189.347 106.028 189.307 106.075 189.256 106.107L188.858 106.335C188.811 106.361 188.775 106.361 188.749 106.335C188.723 106.287 188.702 106.237 188.687 106.185L188.257 104.185Z" fill="#FAFAFA"/>
<path d="M190.681 101.989C190.693 101.702 190.727 101.416 190.785 101.134C190.844 100.859 190.934 100.591 191.054 100.337C191.168 100.089 191.314 99.8572 191.489 99.6476C191.666 99.4397 191.878 99.2644 192.116 99.1296C192.298 99.0058 192.512 98.9358 192.732 98.9276C192.897 98.9294 193.054 98.9943 193.173 99.1089C193.298 99.2499 193.389 99.4185 193.437 99.601C193.504 99.8389 193.54 100.084 193.546 100.331C193.546 100.425 193.546 100.528 193.546 100.642C193.546 100.756 193.546 100.875 193.546 101C193.546 101.124 193.546 101.243 193.546 101.357C193.546 101.471 193.546 101.58 193.546 101.678C193.534 101.964 193.5 102.248 193.442 102.528C193.382 102.802 193.294 103.07 193.178 103.325C193.06 103.572 192.912 103.804 192.737 104.014C192.56 104.22 192.35 104.395 192.116 104.532C191.929 104.655 191.712 104.725 191.489 104.734C191.408 104.736 191.328 104.721 191.253 104.691C191.179 104.661 191.111 104.616 191.054 104.558C190.919 104.413 190.826 104.234 190.785 104.04C190.723 103.801 190.688 103.556 190.681 103.31C190.681 103.217 190.681 103.113 190.681 102.999C190.681 102.885 190.681 102.766 190.681 102.642C190.681 102.517 190.681 102.403 190.681 102.284C190.681 102.165 190.676 102.082 190.681 101.989ZM192.888 100.751C192.899 100.624 192.885 100.496 192.846 100.375C192.807 100.254 192.743 100.142 192.66 100.046C192.525 99.9274 192.339 99.9325 192.116 100.046C191.874 100.189 191.682 100.402 191.567 100.658C191.42 100.96 191.342 101.291 191.339 101.626C191.339 101.818 191.339 102.03 191.339 102.264C191.339 102.497 191.339 102.704 191.339 102.89C191.327 103.017 191.342 103.145 191.381 103.266C191.42 103.387 191.483 103.499 191.567 103.595C191.701 103.709 191.888 103.698 192.116 103.569C192.354 103.426 192.543 103.215 192.66 102.963C192.807 102.663 192.885 102.334 192.888 101.999C192.888 101.803 192.888 101.59 192.888 101.357C192.888 101.124 192.893 100.937 192.888 100.751Z" fill="#FAFAFA"/>
<path d="M195.804 97.0628C196.213 96.8297 196.519 96.7935 196.731 96.9644C196.857 97.1031 196.951 97.2679 197.005 97.447C197.06 97.6261 197.074 97.8151 197.047 98.0004C197.051 98.3523 196.997 98.7024 196.887 99.0364C196.781 99.3476 196.618 99.6359 196.405 99.8859L197.078 101.352C197.08 101.376 197.08 101.4 197.078 101.424C197.078 101.471 197.068 101.517 197.047 101.559C197.033 101.597 197.008 101.629 196.975 101.652L196.56 101.891C196.493 101.927 196.446 101.932 196.415 101.891C196.388 101.863 196.365 101.832 196.348 101.797L195.711 100.414L195.063 100.787V102.538C195.064 102.595 195.051 102.652 195.027 102.704C195.006 102.749 194.974 102.788 194.934 102.818L194.54 103.046C194.527 103.057 194.51 103.063 194.493 103.063C194.476 103.063 194.46 103.057 194.447 103.046C194.432 103.03 194.421 103.011 194.413 102.991C194.406 102.97 194.404 102.948 194.405 102.927V98.0833C194.407 98.0257 194.421 97.9691 194.447 97.9175C194.465 97.8707 194.498 97.8308 194.54 97.8036L195.804 97.0628ZM195.074 99.8497L195.804 99.456C195.982 99.3564 196.135 99.2162 196.249 99.0468C196.369 98.8472 196.427 98.6163 196.415 98.3837C196.415 98.104 196.358 97.9486 196.249 97.9175C196.092 97.8961 195.932 97.937 195.804 98.0315L195.099 98.4355L195.074 99.8497Z" fill="#FAFAFA"/>
<path d="M199.275 95.0686C199.463 94.9459 199.678 94.8712 199.901 94.851C200.064 94.845 200.222 94.9027 200.342 95.0116C200.479 95.1559 200.574 95.335 200.616 95.5296C200.686 95.7865 200.724 96.0509 200.73 96.3169C200.73 96.6795 200.73 97.0525 200.73 97.4306C200.72 97.739 200.682 98.0459 200.616 98.3475C200.557 98.6278 200.467 98.9006 200.347 99.1608C200.231 99.3997 200.085 99.6226 199.912 99.8238C199.739 100.03 199.532 100.205 199.301 100.342L198.073 101.01C198.06 101.021 198.043 101.027 198.026 101.027C198.009 101.027 197.993 101.021 197.98 101.01C197.965 100.994 197.953 100.976 197.946 100.955C197.939 100.934 197.936 100.913 197.938 100.891V96.0476C197.94 95.99 197.954 95.9334 197.98 95.8818C197.998 95.835 198.031 95.7951 198.073 95.7679L199.275 95.0686ZM200.072 96.6795C200.07 96.5393 200.049 96.3999 200.01 96.2651C199.986 96.1632 199.934 96.0699 199.86 95.9958C199.827 95.9633 199.789 95.9378 199.746 95.9208C199.703 95.9039 199.657 95.8959 199.611 95.8974C199.482 95.906 199.357 95.9489 199.249 96.0217L198.596 96.3946V99.772L199.275 99.3835C199.406 99.3071 199.523 99.209 199.622 99.0934C199.718 98.9798 199.8 98.8545 199.865 98.7205C199.93 98.5777 199.978 98.4284 200.01 98.275C200.046 98.115 200.067 97.952 200.072 97.7881C200.088 97.4099 200.088 97.0421 200.072 96.6795Z" fill="#FAFAFA"/>
<path d="M128.143 19.886C129.037 20.085 129.898 20.4094 130.702 20.8495C131.471 21.263 132.16 21.8103 132.737 22.4657C133.29 23.0961 133.7 23.8382 133.939 24.6413C134.184 25.501 134.202 26.4093 133.991 27.2779C133.852 27.9666 133.579 28.6213 133.188 29.2049C132.831 29.7039 132.406 30.1503 131.924 30.5309C131.452 30.898 130.947 31.2221 130.417 31.4996L128.925 32.2921C128.476 32.5265 128.049 32.8023 127.651 33.1158C127.29 33.3922 127.014 33.7635 126.853 34.188C126.774 34.382 126.643 34.5505 126.475 34.6749C126.395 34.7368 126.302 34.7797 126.204 34.8004C126.105 34.821 126.003 34.8189 125.905 34.7941L123.709 34.3072C123.603 34.285 123.503 34.242 123.414 34.1806C123.325 34.1192 123.249 34.0407 123.191 33.9497C123.129 33.8651 123.087 33.7671 123.07 33.6636C123.053 33.5602 123.061 33.4541 123.092 33.354C123.269 32.6738 123.581 32.0362 124.009 31.4789C124.4 30.9859 124.853 30.5455 125.356 30.1683C125.846 29.8093 126.366 29.4922 126.91 29.2204C127.428 28.9562 127.946 28.7024 128.397 28.4486C128.816 28.2233 129.21 27.9541 129.572 27.6457C129.891 27.3794 130.111 27.015 130.199 26.6097C130.282 26.2577 130.278 25.8911 130.187 25.5411C130.097 25.1911 129.924 24.8681 129.681 24.5998C129.076 23.9385 128.266 23.499 127.381 23.3515C125.744 22.9889 124.363 23.5397 123.237 25.0039C123.129 25.1637 122.992 25.3024 122.833 25.4131C122.654 25.5017 122.448 25.5166 122.258 25.4545L119.922 24.9365C119.756 24.9043 119.608 24.8075 119.513 24.6672C119.462 24.5922 119.428 24.5071 119.413 24.4178C119.397 24.3284 119.402 24.2368 119.425 24.1492C119.623 23.4294 119.993 22.7683 120.502 22.2222C121.077 21.5889 121.759 21.0628 122.517 20.6682C123.347 20.2343 124.24 19.937 125.164 19.7876C126.154 19.6266 127.166 19.6601 128.143 19.886ZM125.662 36.5553C125.867 36.6035 126.046 36.7303 126.159 36.9084C126.272 37.0865 126.311 37.3019 126.268 37.5084L125.708 40.0466C125.689 40.1529 125.648 40.254 125.587 40.3432C125.527 40.4325 125.448 40.5079 125.356 40.5646C125.269 40.6244 125.171 40.6654 125.068 40.685C124.964 40.7047 124.858 40.7025 124.755 40.6786L122.248 40.1036C122.141 40.0856 122.04 40.0448 121.95 39.984C121.861 39.9233 121.786 39.8439 121.73 39.7513C121.672 39.6639 121.632 39.5654 121.614 39.4621C121.595 39.3588 121.597 39.2528 121.621 39.1505L122.186 36.6123C122.234 36.4065 122.361 36.2276 122.539 36.1135C122.716 35.9994 122.932 35.9591 123.139 36.001L125.662 36.5553Z" fill="#893264"/>
<path d="M130.909 44.1854C131.533 44.0853 132.167 44.0731 132.795 44.1491C133.394 44.2203 133.976 44.3956 134.514 44.6671C135.027 44.9333 135.479 45.3038 135.84 45.7549C136.165 46.1964 136.394 46.7011 136.512 47.2364C136.629 47.7718 136.634 48.3259 136.524 48.8629C136.425 49.2758 136.267 49.672 136.053 50.0388C135.847 50.3955 135.607 50.732 135.338 51.0437C135.074 51.3545 134.82 51.6498 134.587 51.9347C134.359 52.2001 134.156 52.4862 133.981 52.7894C133.817 53.0551 133.734 53.363 133.742 53.6751C133.738 53.821 133.697 53.9635 133.623 54.0895C133.586 54.1476 133.536 54.1971 133.478 54.2346C133.42 54.2721 133.355 54.2968 133.287 54.3071L131.733 54.5557C131.66 54.5689 131.585 54.5675 131.513 54.5514C131.441 54.5354 131.373 54.5052 131.313 54.4625C131.252 54.424 131.201 54.3716 131.164 54.3094C131.127 54.2473 131.105 54.1772 131.101 54.1051C131.036 53.6231 131.071 53.1328 131.204 52.665C131.326 52.251 131.5 51.8541 131.722 51.484C131.94 51.1288 132.19 50.7942 132.468 50.4843C132.743 50.1735 132.986 49.8834 133.224 49.6037C133.437 49.3539 133.621 49.0811 133.774 48.7904C133.908 48.5402 133.958 48.2527 133.913 47.972C133.874 47.7248 133.776 47.4908 133.628 47.2897C133.479 47.0886 133.284 46.9263 133.059 46.8168C132.502 46.5478 131.871 46.4713 131.266 46.5993C130.719 46.6794 130.209 46.927 129.807 47.3081C129.406 47.6893 129.132 48.1853 129.024 48.7282C128.993 48.8588 128.941 48.9832 128.868 49.096C128.776 49.1943 128.65 49.2552 128.516 49.267L126.879 49.5311C126.764 49.5532 126.645 49.529 126.547 49.4638C126.498 49.4295 126.456 49.385 126.424 49.3332C126.393 49.2814 126.373 49.2235 126.366 49.1634C126.317 48.6493 126.398 48.1313 126.599 47.656C126.804 47.1029 127.106 46.5907 127.49 46.1434C127.912 45.6536 128.408 45.234 128.961 44.9002C129.558 44.5382 130.22 44.2955 130.909 44.1854ZM133.582 55.5037C133.653 55.4924 133.726 55.4952 133.796 55.5121C133.867 55.529 133.933 55.5596 133.991 55.6021C134.052 55.6422 134.104 55.6948 134.143 55.7564C134.183 55.818 134.208 55.8872 134.219 55.9595L134.509 57.7363C134.532 57.8804 134.496 58.0276 134.411 58.1459C134.326 58.2642 134.197 58.3441 134.053 58.3682L132.318 58.6531C132.174 58.6754 132.027 58.64 131.909 58.5547C131.849 58.514 131.798 58.4612 131.759 58.3996C131.721 58.3381 131.696 58.2691 131.686 58.1973L131.396 56.4205C131.383 56.3492 131.385 56.276 131.402 56.2055C131.419 56.135 131.45 56.0688 131.494 56.0113C131.535 55.9512 131.588 55.9004 131.649 55.862C131.711 55.8236 131.78 55.7986 131.852 55.7886L133.582 55.5037Z" fill="#893264"/>
<g opacity="0.2">
<path d="M130.909 44.1854C131.533 44.0853 132.167 44.0731 132.795 44.1491C133.394 44.2203 133.976 44.3956 134.514 44.6671C135.027 44.9333 135.479 45.3038 135.84 45.7549C136.165 46.1964 136.394 46.7011 136.512 47.2364C136.629 47.7718 136.634 48.3259 136.524 48.8629C136.425 49.2758 136.267 49.672 136.053 50.0388C135.847 50.3955 135.607 50.732 135.338 51.0437C135.074 51.3545 134.82 51.6498 134.587 51.9347C134.359 52.2001 134.156 52.4862 133.981 52.7894C133.817 53.0551 133.734 53.363 133.742 53.6751C133.738 53.821 133.697 53.9635 133.623 54.0895C133.586 54.1476 133.536 54.1971 133.478 54.2346C133.42 54.2721 133.355 54.2968 133.287 54.3071L131.733 54.5557C131.66 54.5689 131.585 54.5675 131.513 54.5514C131.441 54.5354 131.373 54.5052 131.313 54.4625C131.252 54.424 131.201 54.3716 131.164 54.3094C131.127 54.2473 131.105 54.1772 131.101 54.1051C131.036 53.6231 131.071 53.1328 131.204 52.665C131.326 52.251 131.5 51.8541 131.722 51.484C131.94 51.1288 132.19 50.7942 132.468 50.4843C132.743 50.1735 132.986 49.8834 133.224 49.6037C133.437 49.3539 133.621 49.0811 133.774 48.7904C133.908 48.5402 133.958 48.2527 133.913 47.972C133.874 47.7248 133.776 47.4908 133.628 47.2897C133.479 47.0886 133.284 46.9263 133.059 46.8168C132.502 46.5478 131.871 46.4713 131.266 46.5993C130.719 46.6794 130.209 46.927 129.807 47.3081C129.406 47.6893 129.132 48.1853 129.024 48.7282C128.993 48.8588 128.941 48.9832 128.868 49.096C128.776 49.1943 128.65 49.2552 128.516 49.267L126.879 49.5311C126.764 49.5532 126.645 49.529 126.547 49.4638C126.498 49.4295 126.456 49.385 126.424 49.3332C126.393 49.2814 126.373 49.2235 126.366 49.1634C126.317 48.6493 126.398 48.1313 126.599 47.656C126.804 47.1029 127.106 46.5907 127.49 46.1434C127.912 45.6536 128.408 45.234 128.961 44.9002C129.558 44.5382 130.22 44.2955 130.909 44.1854ZM133.582 55.5037C133.653 55.4924 133.726 55.4952 133.796 55.5121C133.867 55.529 133.933 55.5596 133.991 55.6021C134.052 55.6422 134.104 55.6948 134.143 55.7564C134.183 55.818 134.208 55.8872 134.219 55.9595L134.509 57.7363C134.532 57.8804 134.496 58.0276 134.411 58.1459C134.326 58.2642 134.197 58.3441 134.053 58.3682L132.318 58.6531C132.174 58.6754 132.027 58.64 131.909 58.5547C131.849 58.514 131.798 58.4612 131.759 58.3996C131.721 58.3381 131.696 58.2691 131.686 58.1973L131.396 56.4205C131.383 56.3492 131.385 56.276 131.402 56.2055C131.419 56.135 131.45 56.0688 131.494 56.0113C131.535 55.9512 131.588 55.9004 131.649 55.862C131.711 55.8236 131.78 55.7986 131.852 55.7886L133.582 55.5037Z" fill="black"/>
</g>
<path d="M145.558 46.9774C145.629 47.0265 145.689 47.0895 145.734 47.1625C145.779 47.2356 145.809 47.3171 145.822 47.4022C145.839 47.4864 145.838 47.5732 145.819 47.657C145.8 47.7408 145.764 47.8198 145.713 47.8891L144.481 49.6244C144.432 49.695 144.369 49.7549 144.296 49.8003C144.222 49.8457 144.141 49.8758 144.056 49.8886C143.972 49.905 143.885 49.9039 143.801 49.8852C143.717 49.8665 143.638 49.8306 143.569 49.7798L141.87 48.5728C141.799 48.5244 141.739 48.4615 141.695 48.3883C141.65 48.315 141.622 48.2332 141.611 48.1481C141.594 48.0638 141.596 47.977 141.614 47.8932C141.633 47.8094 141.669 47.7304 141.72 47.6612L142.968 45.9259C143.069 45.7852 143.221 45.69 143.392 45.6609C143.563 45.6318 143.738 45.6712 143.88 45.7705L145.558 46.9774ZM152.727 35.224C153.347 35.6582 153.898 36.1819 154.364 36.778C154.818 37.3325 155.169 37.9641 155.4 38.6428C155.615 39.2931 155.688 39.9821 155.612 40.663C155.525 41.389 155.25 42.0798 154.815 42.6676C154.492 43.143 154.076 43.5482 153.592 43.859C153.167 44.1258 152.704 44.3283 152.22 44.4599C151.747 44.5833 151.266 44.6665 150.78 44.7086L149.402 44.8329C148.988 44.8659 148.579 44.937 148.179 45.0453C147.81 45.1291 147.472 45.3159 147.205 45.584C147.085 45.7065 146.932 45.7927 146.765 45.8326C146.686 45.8554 146.602 45.8589 146.521 45.8426C146.439 45.8264 146.363 45.791 146.299 45.7394L144.797 44.6723C144.653 44.5698 144.555 44.4157 144.522 44.2424C144.503 44.1584 144.503 44.071 144.524 43.9873C144.545 43.9036 144.585 43.8259 144.641 43.7606C144.992 43.3053 145.431 42.9248 145.931 42.6417C146.382 42.3957 146.862 42.2094 147.361 42.0875C147.842 41.9707 148.332 41.8962 148.827 41.8647C149.314 41.8337 149.769 41.7974 150.194 41.756C150.583 41.7216 150.967 41.6452 151.339 41.528C151.664 41.4196 151.945 41.2065 152.137 40.922C152.31 40.6817 152.422 40.4032 152.465 40.1101C152.507 39.817 152.478 39.518 152.38 39.2385C152.135 38.5481 151.667 37.9592 151.049 37.5653C149.93 36.7676 148.709 36.7417 147.387 37.4876C147.254 37.5724 147.106 37.6321 146.952 37.6638C146.871 37.6694 146.79 37.659 146.714 37.6332C146.637 37.6074 146.567 37.5667 146.506 37.5135L144.911 36.3791C144.853 36.3408 144.803 36.2912 144.765 36.2334C144.727 36.1755 144.701 36.1106 144.688 36.0424C144.675 35.9719 144.678 35.8996 144.695 35.8301C144.712 35.7606 144.743 35.6953 144.786 35.6384C145.163 35.1561 145.652 34.7736 146.211 34.5247C146.846 34.237 147.526 34.0618 148.221 34.0067C148.985 33.9428 149.755 34.004 150.5 34.188C151.304 34.3817 152.061 34.7339 152.727 35.224Z" fill="#893264"/>
<g opacity="0.6">
<path d="M145.558 46.9774C145.629 47.0265 145.689 47.0895 145.734 47.1625C145.779 47.2356 145.809 47.3171 145.822 47.4022C145.839 47.4864 145.838 47.5732 145.819 47.657C145.8 47.7408 145.764 47.8198 145.713 47.8891L144.481 49.6244C144.432 49.695 144.369 49.7549 144.296 49.8003C144.222 49.8457 144.141 49.8758 144.056 49.8886C143.972 49.905 143.885 49.9039 143.801 49.8852C143.717 49.8665 143.638 49.8306 143.569 49.7798L141.87 48.5728C141.799 48.5244 141.739 48.4615 141.695 48.3883C141.65 48.315 141.622 48.2332 141.611 48.1481C141.594 48.0638 141.596 47.977 141.614 47.8932C141.633 47.8094 141.669 47.7304 141.72 47.6612L142.968 45.9259C143.069 45.7852 143.221 45.69 143.392 45.6609C143.563 45.6318 143.738 45.6712 143.88 45.7705L145.558 46.9774ZM152.727 35.224C153.347 35.6582 153.898 36.1819 154.364 36.778C154.818 37.3325 155.169 37.9641 155.4 38.6428C155.615 39.2931 155.688 39.9821 155.612 40.663C155.525 41.389 155.25 42.0798 154.815 42.6676C154.492 43.143 154.076 43.5482 153.592 43.859C153.167 44.1258 152.704 44.3283 152.22 44.4599C151.747 44.5833 151.266 44.6665 150.78 44.7086L149.402 44.8329C148.988 44.8659 148.579 44.937 148.179 45.0453C147.81 45.1291 147.472 45.3159 147.205 45.584C147.085 45.7065 146.932 45.7927 146.765 45.8326C146.686 45.8554 146.602 45.8589 146.521 45.8426C146.439 45.8264 146.363 45.791 146.299 45.7394L144.797 44.6723C144.653 44.5698 144.555 44.4157 144.522 44.2424C144.503 44.1584 144.503 44.071 144.524 43.9873C144.545 43.9036 144.585 43.8259 144.641 43.7606C144.992 43.3053 145.431 42.9248 145.931 42.6417C146.382 42.3957 146.862 42.2094 147.361 42.0875C147.842 41.9707 148.332 41.8962 148.827 41.8647C149.314 41.8337 149.769 41.7974 150.194 41.756C150.583 41.7216 150.967 41.6452 151.339 41.528C151.664 41.4196 151.945 41.2065 152.137 40.922C152.31 40.6817 152.422 40.4032 152.465 40.1101C152.507 39.817 152.478 39.518 152.38 39.2385C152.135 38.5481 151.667 37.9592 151.049 37.5653C149.93 36.7676 148.709 36.7417 147.387 37.4876C147.254 37.5724 147.106 37.6321 146.952 37.6638C146.871 37.6694 146.79 37.659 146.714 37.6332C146.637 37.6074 146.567 37.5667 146.506 37.5135L144.911 36.3791C144.853 36.3408 144.803 36.2912 144.765 36.2334C144.727 36.1755 144.701 36.1106 144.688 36.0424C144.675 35.9719 144.678 35.8996 144.695 35.8301C144.712 35.7606 144.743 35.6953 144.786 35.6384C145.163 35.1561 145.652 34.7736 146.211 34.5247C146.846 34.237 147.526 34.0618 148.221 34.0067C148.985 33.9428 149.755 34.004 150.5 34.188C151.304 34.3817 152.061 34.7339 152.727 35.224Z" fill="white"/>
</g>
<path d="M106.983 92.8308H88.5781V48.2413C88.5781 44.3685 90.1166 40.6544 92.8551 37.9159C95.5936 35.1774 99.3077 33.6389 103.181 33.6389H104.88C108.752 33.6389 112.467 35.1774 115.205 37.9159C117.944 40.6544 119.482 44.3685 119.482 48.2413V80.3573C119.475 83.6679 118.155 86.8405 115.812 89.179C113.469 91.5174 110.293 92.8308 106.983 92.8308Z" fill="#263238"/>
<path d="M86.7858 200.176C86.4602 202.023 86.287 203.894 86.2678 205.77C86.2004 209.168 85.5788 210.375 85.496 213.162C85.3975 216.348 85.9518 217.539 87.2416 219.332C88.5314 221.124 91.9036 222.745 93.3644 219.72C94.8251 216.695 94.6128 214.711 94.1517 211.587C93.6804 208.355 93.6337 206.568 93.3437 204.108C93.1054 201.937 92.8257 200.285 92.8257 200.285L86.7858 200.176Z" fill="#263238"/>
<path d="M96.431 177.607L85.2422 177.405C85.4079 184.874 86.5942 193.167 86.7962 200.197C86.8376 201.518 86.7651 210.448 87.2624 213.147C88.0135 217.229 92.8516 216.674 93.1106 214.234C93.3696 211.795 92.7998 201.367 92.8153 200.29C92.7687 195.794 94.8873 188.205 95.9803 180.135C96.0269 179.746 96.3792 177.995 96.431 177.607Z" fill="#FFA8A7"/>
<path d="M110.805 194.364C110.805 194.364 110.365 194.126 110.287 194.597C110.179 195.156 110.013 196.312 109.769 197.234C109.448 198.513 109.179 200.621 109.37 201.668C109.562 202.714 111.997 204.051 113.577 204.537C115.524 205.138 117.3 206.195 118.757 207.62C120.311 209.091 123.693 210.479 126.009 210.463C128.728 210.463 130.624 209.557 131.52 208.101C132.416 206.646 130.702 206.47 127.594 204.475L125.185 202.921C120.259 199.705 118.451 197.985 117.068 194.768L110.805 194.364Z" fill="#263238"/>
<path d="M117.109 192.37C117.027 190.059 118.622 170.422 118.622 170.422L107.998 175.265C110.272 188.847 110.759 192.054 110.795 194.276C110.748 194.462 110.729 194.654 110.738 194.846C110.738 197.482 113.727 198.907 116.048 200.668C118.02 202.213 120.123 203.586 122.331 204.771C124.02 205.615 127.449 205.693 127.873 204.61C125.045 202.45 120.932 199.218 118.684 196.752C117.586 195.592 117.192 194.685 117.109 192.37Z" fill="#FFA8A7"/>
<path d="M89.8265 104.719C85.7447 113.675 85.7446 120.606 86.4232 132.038C87.0241 142.528 88.0238 151.774 88.0238 151.774C87.8684 153.634 85.2836 157.265 84.9469 165.491C84.6361 173.178 85.4649 182.952 85.4649 182.952C85.4649 182.952 91.2717 186.169 95.5659 182.921C95.5659 182.921 99.7099 163.139 100.922 153.514C101.958 145.118 103.823 134.39 103.823 134.39L107.744 153.457C106.898 156.163 106.284 158.936 105.91 161.745C105.361 167.407 108.531 178.524 108.531 178.524C108.531 178.524 114.53 180.311 118.192 177.063C118.192 177.063 119.56 158.99 120.073 152.173C120.756 143.041 119.316 118.322 118.192 105.232L89.8265 104.719Z" fill="#455A64"/>
<path d="M103.833 134.374L105.444 120.005C105.444 120.005 112.665 119.042 115.939 115.965C115.002 117.431 113.754 118.672 112.283 119.602C110.812 120.531 109.154 121.125 107.428 121.341L105.097 134.711L107.744 153.457L103.833 134.374Z" fill="#263238"/>
<path d="M133.074 101.186C133.373 98.5639 133.504 95.9255 133.468 93.2866C133.307 91.0074 132.898 90.6345 129.712 86.5992C125.413 81.1447 121.74 76.2392 117.855 71.3649C115.079 67.8839 112.157 67.3504 109.319 67.5058C107.33 67.6145 111.215 77.182 113.168 82.8437L124.32 94.851C124.666 95.3249 124.824 95.9095 124.766 96.493L124.092 106.708L127.433 111.184C127.433 111.184 132.494 106.822 133.074 101.186Z" fill="#FFA8A7"/>
<path d="M98.565 67.8165C96.4049 67.9667 92.4785 68.3345 92.4785 68.3345C90.2148 69.5984 89.6398 70.6396 89.2203 73.644C89.039 74.9287 90.0853 78.3423 90.9814 83.1959L92.6805 92.1936L92.494 96.6588C91.6134 99.3834 89.6191 102.766 87.8579 107.754C96.5085 112.582 103.761 112.763 110.339 111.898C115.353 111.251 118.011 110.039 118.896 108.837C118.71 103.911 118.378 100.865 118.275 95.716C118.239 93.5559 118.368 91.37 118.456 88.8836C121.818 86.1175 121.859 81.5176 120.01 78.5236C115.747 71.6186 111.598 67.2726 108.852 67.4954L98.565 67.8165Z" fill="#893264"/>
<path opacity="0.6" d="M98.565 67.8165C96.4049 67.9667 92.4785 68.3345 92.4785 68.3345C90.2148 69.5984 89.6398 70.6396 89.2203 73.644C89.039 74.9287 90.0853 78.3423 90.9814 83.1959L92.6805 92.1936L92.494 96.6588C91.6134 99.3834 89.6191 102.766 87.8579 107.754C96.5085 112.582 103.761 112.763 110.339 111.898C115.353 111.251 118.011 110.039 118.896 108.837C118.71 103.911 118.378 100.865 118.275 95.716C118.239 93.5559 118.368 91.37 118.456 88.8836C121.818 86.1175 121.859 81.5176 120.01 78.5236C115.747 71.6186 111.598 67.2726 108.852 67.4954L98.565 67.8165Z" fill="white"/>
<path opacity="0.1" d="M111.759 88.9509C111.759 88.9509 107.811 92.0174 103.3 90.4168C102.033 90.0176 100.89 89.2981 99.9828 88.3281C99.0754 87.358 98.4336 86.1701 98.1197 84.8794C98.1197 84.8794 97.6431 90.0335 103.326 91.7895C108.832 93.4834 111.759 88.9509 111.759 88.9509Z" fill="black"/>
<path d="M117.115 53.67C116.944 61.1499 114.525 62.994 113.302 63.512C112.08 64.03 109.738 63.7192 107.459 63.341V67.858C107.459 67.858 110.09 70.6137 109.894 72.6702C109.697 74.7267 105.75 74.9598 102.807 72.9447C101.184 71.8296 99.7155 70.504 98.4406 69.0028C98.1958 68.7131 98.0618 68.346 98.0625 67.9668V57.3996C98.0625 57.3996 96.8141 58.7205 94.6074 57.2079C94.1313 56.904 93.7236 56.5044 93.4103 56.0345C93.0969 55.5645 92.8848 55.0345 92.7874 54.4782C92.6899 53.9218 92.7093 53.3512 92.8443 52.8028C92.9793 52.2543 93.2269 51.7399 93.5714 51.2923C94.5349 50.1579 96.9799 50.0802 98.1506 51.8103C98.8136 53.1002 98.9017 54.4003 99.6424 53.8823C101.611 52.463 100.554 49.2203 102.932 47.6663C103.712 47.2591 104.522 46.9128 105.356 46.6303C109.598 45.1644 113.276 43.9316 114.162 41.0308C115.83 41.9839 117.322 44.8484 117.115 53.67Z" fill="#FFA8A7"/>
<path d="M108.749 60.3522C109.292 60.3522 109.733 59.9115 109.733 59.368C109.733 58.8244 109.292 58.3838 108.749 58.3838C108.205 58.3838 107.765 58.8244 107.765 59.368C107.765 59.9115 108.205 60.3522 108.749 60.3522Z" fill="#B16668"/>
<path d="M108.096 52.5355C108.096 52.7381 108.036 52.9362 107.925 53.1053C107.813 53.2744 107.654 53.407 107.468 53.4867C107.281 53.5664 107.076 53.5897 106.876 53.5537C106.677 53.5178 106.492 53.4241 106.346 53.2844C106.199 53.1446 106.096 52.9649 106.051 52.7675C106.005 52.57 106.018 52.3636 106.089 52.1736C106.159 51.9836 106.284 51.8185 106.448 51.6987C106.611 51.5789 106.806 51.5096 107.008 51.4995C107.149 51.4924 107.289 51.514 107.421 51.5629C107.552 51.6119 107.673 51.6871 107.775 51.784C107.876 51.8809 107.957 51.9975 108.013 52.1267C108.068 52.2559 108.096 52.3949 108.096 52.5355Z" fill="#263238"/>
<path d="M115.944 52.6391C115.955 52.7659 115.94 52.8934 115.901 53.0144C115.861 53.1354 115.799 53.2474 115.716 53.3438C115.633 53.4402 115.531 53.5192 115.418 53.5761C115.304 53.633 115.18 53.6666 115.053 53.6751C114.925 53.6869 114.796 53.6714 114.674 53.6295C114.553 53.5876 114.442 53.5204 114.348 53.4322C114.254 53.344 114.181 53.2369 114.132 53.118C114.083 52.9992 114.06 52.8712 114.064 52.7427C114.05 52.615 114.063 52.486 114.101 52.3635C114.14 52.2409 114.203 52.1275 114.286 52.0301C114.37 51.9328 114.473 51.8535 114.588 51.7972C114.703 51.741 114.829 51.7088 114.957 51.7028C115.085 51.6968 115.214 51.7171 115.334 51.7623C115.454 51.8076 115.563 51.8769 115.656 51.966C115.748 52.0551 115.821 52.1622 115.871 52.2806C115.921 52.399 115.945 52.5263 115.944 52.6547V52.6391Z" fill="#263238"/>
<path d="M106.765 55.1981C105.872 55.1981 105.015 54.8435 104.382 54.2122C103.75 53.5809 103.394 52.7245 103.393 51.8311C103.393 49.5415 105.755 49.5415 106.765 49.5415C107.775 49.5415 110.132 49.5415 110.132 51.8311C110.131 52.7236 109.775 53.5792 109.144 54.2104C108.513 54.8415 107.658 55.1967 106.765 55.1981ZM106.765 50.0699C104.693 50.0699 103.926 50.5879 103.926 51.8311C103.926 52.5867 104.227 53.3113 104.761 53.8456C105.295 54.3799 106.02 54.6801 106.775 54.6801C107.531 54.6801 108.256 54.3799 108.79 53.8456C109.324 53.3113 109.624 52.5867 109.624 51.8311C109.604 50.562 108.806 50.0699 106.765 50.0699Z" fill="#455A64"/>
<path d="M115.317 55.1981C114.424 55.1981 113.567 54.8435 112.935 54.2122C112.302 53.5809 111.946 52.7245 111.945 51.8311C111.945 49.5415 114.307 49.5415 115.317 49.5415C116.327 49.5415 118.684 49.5415 118.684 51.8311C118.683 52.7236 118.328 53.5792 117.697 54.2104C117.065 54.8415 116.21 55.1967 115.317 55.1981ZM115.317 50.0699C113.276 50.0699 112.479 50.5879 112.479 51.8311C112.479 52.5867 112.779 53.3113 113.313 53.8456C113.847 54.3799 114.572 54.6801 115.328 54.6801C116.083 54.6801 116.808 54.3799 117.342 53.8456C117.876 53.3113 118.177 52.5867 118.177 51.8311C118.156 50.562 117.358 50.0699 115.317 50.0699Z" fill="#455A64"/>
<path d="M110.655 50.7433L110.821 57.037L114.131 56.0113L110.655 50.7433Z" fill="#F28F8F"/>
<path d="M107.454 63.3565C105.051 63.0406 100.104 61.6212 99.3318 59.6632C99.6424 60.6528 100.248 61.5239 101.067 62.16C102.543 63.4291 107.454 64.8536 107.454 64.8536V63.3565Z" fill="#F28F8F"/>
<path d="M107.573 47.6871L105.377 49.0287C105.204 48.7272 105.153 48.3706 105.236 48.033C105.319 47.6954 105.529 47.4027 105.822 47.2157C105.967 47.1278 106.128 47.0702 106.296 47.0463C106.464 47.0224 106.635 47.0329 106.798 47.0769C106.962 47.121 107.115 47.1978 107.248 47.3026C107.381 47.4075 107.492 47.5383 107.573 47.6871Z" fill="#263238"/>
<path d="M116.509 49.1789L114.064 48.3242C114.111 48.1621 114.191 48.0115 114.299 47.8815C114.406 47.7515 114.54 47.6449 114.69 47.5682C114.84 47.4916 115.005 47.4465 115.173 47.4357C115.342 47.425 115.511 47.4488 115.67 47.5057C115.997 47.6236 116.267 47.863 116.424 48.1745C116.58 48.486 116.61 48.8456 116.509 49.1789Z" fill="#263238"/>
<path d="M109.868 52.1004C109.833 52.1004 109.798 52.0934 109.765 52.0798C109.733 52.0662 109.704 52.0462 109.679 52.0212C109.654 51.9961 109.635 51.9663 109.622 51.9337C109.609 51.901 109.603 51.8661 109.604 51.831C109.604 51.4011 110.453 51.1213 111.22 51.1213C111.986 51.1213 112.478 51.4011 112.478 51.831C112.462 51.8873 112.428 51.9368 112.382 51.9721C112.335 52.0073 112.278 52.0264 112.219 52.0264C112.161 52.0264 112.104 52.0073 112.057 51.9721C112.011 51.9368 111.977 51.8873 111.96 51.831C111.96 51.7792 111.696 51.6497 111.235 51.6497C110.864 51.6418 110.495 51.7051 110.147 51.8362C110.148 51.8722 110.14 51.9079 110.126 51.941C110.112 51.9741 110.091 52.0039 110.065 52.0287C110.038 52.0534 110.007 52.0726 109.974 52.0849C109.94 52.0972 109.904 52.1025 109.868 52.1004Z" fill="#455A64"/>
<path d="M103.667 51.8725H103.636L97.7155 51.3545C97.4388 51.0803 97.1093 50.8653 96.7468 50.7225L103.698 51.3649C103.768 51.3739 103.831 51.4099 103.875 51.4651C103.919 51.5202 103.939 51.5902 103.931 51.6601C103.919 51.7209 103.886 51.7754 103.838 51.8143C103.79 51.8531 103.729 51.8737 103.667 51.8725Z" fill="#455A64"/>
<path d="M79.3576 58.047C81.295 55.457 82.6159 53.5042 84.3822 51.313C85.3872 50.0543 86.0295 49.153 86.9722 47.8632C87.6353 46.9722 88.0082 46.2211 88.7645 45.9466C89.5816 45.6118 90.318 45.1067 90.9246 44.4651C91.2975 44.0526 91.6435 43.6165 91.9606 43.1597C93.0708 41.6653 94.3896 40.3378 95.8767 39.2177C97.4307 38.0471 99.166 37.1457 100.767 36.032C101.72 35.3638 102.74 34.2553 101.58 33.2193C101.224 32.9196 100.798 32.7147 100.342 32.6236C97.5187 32.0124 95.0634 32.981 92.3025 33.6855C91.1032 33.9848 89.9303 34.3816 88.7956 34.8717C88.2375 35.0925 87.7141 35.3925 87.2416 35.7627C86.581 36.4287 86.0396 37.2031 85.641 38.0522C84.434 40.2071 81.844 42.1341 80.031 43.8383C77.9124 45.8326 76.0165 47.6611 73.5975 49.8575C71.4219 51.8414 69.2929 53.6648 67.2986 55.83C65.6462 57.6171 66.2626 59.0157 66.4802 59.5026C67.827 62.2687 69.3343 63.2633 71.1422 64.9779C74.2502 67.946 84.9987 76.4878 88.5573 79.3109C89.3219 79.9115 89.9224 80.6955 90.303 81.5901L90.9867 83.17C95.0479 83.916 97.757 77.8191 94.3952 70.479C93.8385 69.2921 92.988 68.2669 91.9243 67.5005C87.6767 64.4081 79.3576 58.047 79.3576 58.047Z" fill="#FFA8A7"/>
<path d="M79.3577 58.047C78.0651 59.6371 76.3425 60.8221 74.3953 61.4606C74.3953 61.4606 76.9853 62.1237 80.5336 58.938L79.3577 58.047Z" fill="#F28F8F"/>
<path d="M132.017 95.7834L131.354 95.2136C131.255 95.1483 131.142 95.1073 131.024 95.0938C130.907 95.0803 130.787 95.0947 130.676 95.1359L123.481 97.0939C123.118 97.2148 122.786 97.4125 122.507 97.6735C122.228 97.9346 122.009 98.2528 121.865 98.6065L116.685 113.54C116.622 113.662 116.598 113.8 116.614 113.935C116.631 114.071 116.688 114.199 116.778 114.302L117.462 114.892C117.561 114.961 117.676 115.004 117.796 115.019C117.916 115.033 118.038 115.018 118.151 114.975L125.356 113.017C125.718 112.896 126.05 112.699 126.329 112.438C126.608 112.177 126.828 111.858 126.972 111.505C128.008 108.568 131.116 99.5078 132.152 96.5708C132.276 96.203 132.214 95.9233 132.017 95.7834Z" fill="#455A64"/>
<path d="M117.363 114.115L122.543 99.1814C122.687 98.828 122.906 98.5101 123.186 98.2498C123.465 97.9895 123.797 97.7931 124.16 97.674L131.349 95.716C132.018 95.5347 132.385 95.918 132.147 96.5707C131.111 99.5077 128.003 108.568 126.967 111.505C126.823 111.858 126.603 112.177 126.324 112.438C126.045 112.699 125.713 112.896 125.351 113.017L118.161 114.996C117.498 115.151 117.141 114.768 117.363 114.115Z" fill="#893264"/>
<path d="M123.377 98.0884C123.003 98.3717 122.713 98.7513 122.538 99.1866L117.358 114.115C117.299 114.234 117.274 114.367 117.287 114.499C117.3 114.631 117.35 114.756 117.431 114.861L116.788 114.312C116.696 114.21 116.638 114.083 116.62 113.947C116.602 113.811 116.627 113.673 116.69 113.551L121.87 98.6168C122.034 98.2108 122.3 97.854 122.642 97.5808L123.377 98.0884Z" fill="#37474F"/>
<path d="M130.044 102.59C129.526 104.108 127.729 105.123 124.755 105.827C121.782 106.532 120.14 109.686 120.611 110.645C121.083 111.603 125.89 112.499 127.811 112.225C129.733 111.95 131.66 109.174 132.246 108.314C132.831 107.454 133.504 101.455 132.888 100.632C132.271 99.8082 130.971 99.9377 130.971 99.9377L130.044 102.59Z" fill="#F28F8F"/>
</svg>
