<svg width="48" height="48" viewBox="0 0 48 48" fill="none" xmlns="http://www.w3.org/2000/svg">
<path fill-rule="evenodd" clip-rule="evenodd" d="M42 26C42 33.4995 42 37.2492 40.0902 39.8779C39.4734 40.7268 38.7268 41.4734 37.8779 42.0902C35.2492 44 31.4995 44 24 44C16.5005 44 12.7508 44 10.1221 42.0902C9.2732 41.4734 8.52662 40.7268 7.90983 39.8779C6 37.2492 6 33.4995 6 26V22C6 20.3221 6 18.8319 6.02139 17.5L6.16164 17.5C7.86567 17.5001 8.90364 17.5002 9.799 17.3584C14.7198 16.579 18.579 12.7198 19.3584 7.799C19.5002 6.90364 19.5001 5.86567 19.5 4.16164L19.5 4.02139C20.8319 4 22.3221 4 24 4C31.4995 4 35.2492 4 37.8779 5.90983C38.7268 6.52662 39.4734 7.2732 40.0902 8.12215C42 10.7508 42 14.5005 42 22V26ZM25.587 20.1965C25.5574 20.1727 25.5284 20.1497 25.5 20.1276V34C25.5 34.8284 24.8284 35.5 24 35.5C23.1716 35.5 22.5 34.8284 22.5 34V20.1276C22.4716 20.1497 22.4426 20.1727 22.413 20.1965C21.7677 20.7147 21.0007 21.4854 19.8611 22.6352L17.0654 25.4559C16.4822 26.0443 15.5325 26.0485 14.9441 25.4654C14.3557 24.8822 14.3515 23.9325 14.9346 23.3441L17.7913 20.4618C18.8541 19.3894 19.7404 18.4951 20.5345 17.8574C21.3673 17.1885 22.2426 16.6798 23.309 16.5439C23.7678 16.4854 24.2322 16.4854 24.691 16.5439C25.7574 16.6798 26.6327 17.1885 27.4655 17.8574C28.2595 18.4951 29.1459 19.3894 30.2086 20.4617L33.0654 23.3441C33.6486 23.9325 33.6443 24.8822 33.0559 25.4654C32.4675 26.0485 31.5178 26.0443 30.9346 25.4559L28.1389 22.6352C26.9993 21.4854 26.2323 20.7147 25.587 20.1965Z" fill="#2D264B"/>
<path d="M9.32969 14.3954C8.71291 14.493 7.95135 14.4997 6.13067 14.5C6.31949 11.6207 6.78113 9.67566 7.90983 8.12215C8.52662 7.2732 9.2732 6.52662 10.1221 5.90983C11.6757 4.78113 13.6207 4.31949 16.5 4.13067C16.4997 5.95135 16.493 6.71291 16.3954 7.32969C15.8193 10.9668 12.9668 13.8193 9.32969 14.3954Z" fill="#2D264B"/>
</svg>
