<svg width="50" height="89" viewBox="0 0 50 89" fill="none" xmlns="http://www.w3.org/2000/svg">
<path d="M18.6749 50.103L29.2557 25.8301V25.5183H19.6086L10.2733 47.9238C10.2733 47.9238 9.96145 48.2356 9.96145 47.9238V47.612L9.64966 25.2065C9.6682 25.0532 9.55865 24.9133 9.40528 24.8947C9.38337 24.8914 9.36146 24.8914 9.33955 24.8947H0.314325C0.160955 24.8762 0.0210673 24.9858 0.00252807 25.1391C-0.000842691 25.161 -0.000842691 25.1829 0.00252807 25.2048L0.624435 58.503C0.605896 58.6563 0.715447 58.7962 0.868817 58.8147C0.890727 58.8181 0.912634 58.8181 0.934545 58.8147H12.1373C12.2907 58.7962 12.4305 58.9058 12.4491 59.0591C12.4525 59.081 12.4525 59.1029 12.4491 59.1249L2.49015 89L18.6715 50.0996L18.6749 50.103Z" fill="#253656"/>
<path d="M4.04932 74.0641L9.33973 61.6176H7.78412L4.04932 74.0641Z" fill="#253656"/>
<path d="M42.6379 11.2028L36.7256 28.0077L38.2812 27.6959L42.6379 11.2028Z" fill="#893264"/>
<path d="M41.3921 29.2532C38.9719 29.1891 36.5567 29.5043 34.2343 30.1869C34.0264 30.1869 33.8191 30.083 33.6123 29.8751V29.5633L42.9477 0C42.9477 0 28.9438 33.6099 28.0101 34.8537C28.0101 35.0616 27.9062 35.2689 27.6983 35.4756L26.1427 39.2104C25.6186 40.3228 25.7366 41.634 26.4545 42.6334C27.0764 43.5671 28.9438 45.7447 31.7449 48.8576C33.3006 50.4132 33.9241 51.9688 33.3006 53.2143L31.7449 57.2592C31.4331 58.1929 30.8112 58.5047 29.5657 58.5047C28.3202 58.5047 27.6983 58.1929 28.0101 57.2592L30.8112 49.7913C30.8112 49.5834 30.7073 49.3761 30.4994 49.1694H22.4079C22.2001 49.1694 22.0961 49.2733 22.0961 49.4812L18.9849 57.2609C17.1175 61.6176 20.2304 63.7968 27.6983 63.7968C35.1663 63.7968 40.4567 61.3075 42.014 56.639L43.5696 52.2823C44.0921 50.9575 43.9775 49.466 43.2578 48.2373C41.6432 45.9486 39.7623 43.8587 37.6556 42.0132C36.1 40.4576 35.4764 38.902 36.1 37.6565L36.7219 35.4773C36.9679 34.3194 38.0314 33.5223 39.2112 33.6099C40.1449 33.6099 40.4567 33.9217 40.1449 34.5436L37.9657 39.834C37.9657 40.0419 38.0696 40.2492 38.2775 40.4559H46.369C46.5769 40.4559 46.6808 40.352 46.6808 40.1441L48.5482 34.8537C50.4156 31.1189 47.9263 29.2515 41.3904 29.2515L41.3921 29.2532Z" fill="#893264"/>
</svg>
