<svg width="74" height="74" viewBox="0 0 74 74" fill="none" xmlns="http://www.w3.org/2000/svg">
<path d="M59.8165 55.4707C59.8165 57.8548 57.8802 59.7942 55.4999 59.7942C53.1195 59.7942 51.1832 57.8548 51.1832 55.4707C51.1832 53.0866 53.1195 51.1471 55.4999 51.1471C57.8802 51.1471 59.8165 53.0866 59.8165 55.4707ZM55.4999 36.9413C45.2817 36.9413 36.9999 45.2363 36.9999 55.4707C36.9999 65.705 45.2817 74 55.4999 74C65.718 74 73.9998 65.705 73.9998 55.4707C73.9998 45.2363 65.718 36.9413 55.4999 36.9413ZM64.7498 55.4707C64.7498 57.1259 64.2781 58.6608 63.5165 60.0073L65.5207 62.0146C66.4827 62.9781 66.4827 64.5439 65.5207 65.5105C64.5587 66.474 62.9954 66.474 62.0334 65.5105L60.0293 63.5031C58.6849 64.2659 57.1556 64.7384 55.4999 64.7384C53.8441 64.7384 52.3148 64.2659 50.9704 63.5031L48.9663 65.5105C48.0043 66.474 46.441 66.474 45.479 65.5105C44.514 64.5469 44.514 62.9812 45.479 62.0146L47.4832 60.0073C46.7216 58.6608 46.2499 57.129 46.2499 55.4707C46.2499 53.8123 46.7216 52.2805 47.4832 50.9341L45.479 48.9267C44.517 47.9632 44.517 46.3975 45.479 45.4308C46.441 44.4673 48.0043 44.4673 48.9663 45.4308L50.9704 47.4382C52.3148 46.6754 53.8441 46.2029 55.4999 46.2029C57.1556 46.2029 58.6849 46.6754 60.0293 47.4382L62.0334 45.4308C62.9954 44.4673 64.5587 44.4673 65.5207 45.4308C66.4857 46.3944 66.4857 47.9601 65.5207 48.9267L63.5165 50.9341C64.2781 52.2805 64.7498 53.8123 64.7498 55.4707ZM52.7619 30.7649H67.7067C69.6893 30.7711 71.5547 29.8291 72.7295 28.2264C73.599 27.0528 74.043 25.623 73.9967 24.1623C73.9721 23.6558 73.8888 23.1524 73.7501 22.6614C73.0286 19.9684 71.9494 17.3867 70.5496 14.981C66.3285 7.736 59.4403 2.43661 51.362 0.228528C50.8286 0.083382 49.6385 0 49.6385 0C49.213 0 47.3815 0 45.9292 1.17661C43.7986 2.85661 43.4626 4.76822 43.4317 4.91645C43.3207 5.38277 43.2621 5.86454 43.2621 6.34321V21.2501C43.2621 26.5062 47.514 30.7649 52.7619 30.7649ZM30.8332 55.4707C30.8332 47.6544 34.4654 40.6997 40.1202 36.1724C38.2456 35.11 36.966 33.1212 36.966 30.8112V16.1977C36.9752 13.3164 35.6432 10.5926 33.3677 8.82923C31.2094 7.11835 28.3789 6.50689 25.7088 7.17703C7.56031 11.692 -3.49958 30.0886 1.00516 48.2658C4.1779 61.0727 14.4824 70.8747 27.4169 73.3885C31.2742 74.1266 35.1067 74.1606 38.7913 73.6078C33.9104 69.0928 30.8332 62.6508 30.8332 55.4707Z" fill="white"/>
</svg>
